<?xml version="1.0" encoding="UTF-8"?>
<svg width="82px" height="39px" viewBox="0 0 82 39" version="1.1" xmlns="http://www.w3.org/2000/svg" xmlns:xlink="http://www.w3.org/1999/xlink">
    <!-- Generator: Sketch 46.1 (44463) - http://www.bohemiancoding.com/sketch -->
    <title>delivery</title>
    <desc>Created with Sketch.</desc>
    <defs></defs>
    <g id="Page-1" stroke="none" stroke-width="1" fill="none" fill-rule="evenodd">
        <g id="delivery" fill-rule="nonzero" fill="#FFFFFF">
            <g id="Group" transform="translate(17.000000, 0.000000)">
                <path d="M63.569,25.219 L64.801,25.044 C64.717,24.903 64.641,24.772 64.571,24.65 L64.536,24.592 C64.374,24.315 64.224,24.054 64.057,23.813 C62.289,21.259 59.905,20.006 56.989,20.102 C55.344,20.154 53.884,20.559 52.647,21.309 C51.403,22.064 50.376,23.173 49.596,24.604 C49.022,25.657 48.567,26.798 48.127,27.902 L48.1,27.972 C47.918,28.425 47.731,28.895 47.536,29.35 C47.458,29.538 47.391,29.736 47.325,29.927 L47.305,29.986 C47.285,30.048 47.264,30.111 47.241,30.174 C47.466,30.192 47.684,30.2 47.895,30.2 C48.42,30.2 48.915,30.135 49.393,30.029 C49.354,30.333 49.331,30.641 49.331,30.955 C49.331,35.097 52.688,38.455 56.831,38.455 C60.974,38.455 64.331,35.097 64.331,30.955 C64.331,28.776 63.397,26.82 61.913,25.449 C62.458,25.377 63.003,25.299 63.569,25.219 Z M56.841,34.887 C54.673,34.894 52.921,33.158 52.9,30.981 C52.877,28.816 54.673,27.014 56.841,27.025 C59.007,27.039 60.763,28.802 60.763,30.961 C60.763,33.124 59.013,34.877 56.841,34.887 Z" id="Shape"></path>
                <circle id="Oval" cx="56.831" cy="30.956" r="1.609"></circle>
                <path d="M8.867,20.592 C10.64,19.406 12.686,18.562 15.306,17.936 C16.625,17.621 17.792,17.467 18.873,17.467 C19.6,17.467 20.308,17.538 20.977,17.676 C23.455,18.186 24.964,19.369 25.591,21.295 C26.103,22.863 26.212,24.475 25.916,26.082 C25.875,26.307 25.824,26.538 25.765,26.77 C25.578,27.5 25.329,28.199 25.066,28.937 L25.019,29.067 C24.926,29.333 24.829,29.603 24.736,29.876 C25.17,29.891 25.613,29.902 26.045,29.915 L26.199,29.919 C27.429,29.95 28.703,29.983 29.973,30.086 C30.039,30.091 30.106,30.094 30.168,30.094 C30.973,30.094 31.471,29.656 31.891,29.181 C32.198,28.837 32.246,28.489 32.03,28.2 C31.889,28.01 31.634,27.884 31.442,27.831 C31.311,27.794 31.18,27.756 31.047,27.714 C30.412,27.517 29.479,27.174 28.715,26.486 C28.702,26.474 28.69,26.463 28.676,26.449 C28.564,26.347 28.458,26.239 28.362,26.13 C27.221,24.824 27.058,23.223 27.86,21.234 C28.892,18.683 30.51,16.712 32.669,15.375 C32.784,15.303 32.86,15.151 32.937,15.005 C32.966,14.945 32.996,14.889 33.027,14.836 C32.965,14.795 32.904,14.747 32.851,14.704 C32.708,14.592 32.562,14.475 32.431,14.475 C31.654,14.497 30.818,14.569 29.872,14.695 C29.368,14.762 28.857,14.853 28.405,14.934 C27.565,15.084 26.696,15.24 25.823,15.276 C23.981,15.353 22.105,15.366 20.29,15.377 L20.259,15.377 C19.884,15.38 19.501,15.383 19.118,15.386 L19.118,15.181 C19.945,15.196 20.791,15.209 21.626,15.209 C23.912,15.209 26.619,15.124 29.352,14.49 C29.35,14.465 29.346,14.437 29.342,14.411 L19.119,14.411 L19.119,2.704 L15.902,2.704 L15.902,13.504 L15.067,13.504 L15.067,2.704 L6.545,2.704 L6.545,13.504 L5.71,13.504 L5.71,2.704 L2.418,2.704 L2.418,14.682 L0.989,14.682 L0.989,16.372 L13.681,16.372 C12.966,16.605 12.254,16.852 11.561,17.13 C8.26,18.452 5.612,20.543 3.687,23.344 C2.519,25.047 1.736,26.974 1.364,29.07 C1.302,29.42 1.294,29.64 1.696,29.749 C2.025,29.836 2.159,29.791 2.283,29.576 C2.314,29.52 2.345,29.454 2.372,29.376 C2.632,28.665 2.94,27.938 3.29,27.218 C4.701,24.325 6.525,22.158 8.867,20.592 Z" id="Shape"></path>
                <path d="M42.296,6.163 C42.521,5.794 42.491,5.524 42.2,5.275 C42.067,5.464 42.014,5.65 42.044,5.813 C42.071,5.948 42.157,6.068 42.296,6.163 Z" id="Shape"></path>
                <path d="M42.722,6.109 C42.837,6.085 42.952,6.06 43.066,6.035 L43.156,6.015 C43.451,5.952 43.754,5.887 44.051,5.817 C44.106,5.804 44.164,5.795 44.221,5.783 C44.381,5.754 44.563,5.721 44.676,5.627 C44.813,5.509 44.951,5.241 44.922,5.073 C44.902,4.951 44.645,4.731 44.522,4.731 L44.522,4.658 L44.514,4.732 C44.032,4.801 43.561,4.911 43.106,5.018 L43.055,5.029 C42.905,5.066 42.754,5.1 42.608,5.133 L42.651,5.499 C42.673,5.702 42.696,5.897 42.722,6.109 Z" id="Shape"></path>
                <path d="M24.445,29.634 C25.57,27.371 25.962,25.109 25.645,22.716 C25.331,20.352 24.037,18.853 21.688,18.133 C20.826,17.869 19.929,17.741 18.949,17.741 C18.22,17.741 17.456,17.811 16.61,17.957 C16.419,17.99 16.232,18.033 16.053,18.074 C15.941,18.1 15.83,18.126 15.716,18.15 C14.965,18.306 14.24,18.496 13.558,18.712 L13.546,18.716 C12.975,18.896 12.423,19.098 11.902,19.315 C11.305,19.564 10.723,19.845 10.163,20.155 L10.153,20.175 L10.125,20.176 C10.04,20.224 9.956,20.273 9.871,20.322 C9.783,20.372 9.694,20.42 9.606,20.468 C9.452,20.553 9.293,20.639 9.146,20.735 C6.814,22.243 4.995,24.369 3.583,27.237 C3.292,27.829 3.037,28.437 2.79,29.025 L2.685,29.272 C2.612,29.445 2.539,29.62 2.463,29.793 L4.742,29.793 C4.66,30.231 4.613,30.679 4.613,31.14 C4.613,35.181 7.889,38.457 11.931,38.457 C15.973,38.457 19.249,35.181 19.249,31.14 C19.249,30.679 19.201,30.231 19.12,29.793 L20.421,29.793 C20.516,29.444 20.614,29.09 20.711,28.742 L20.76,28.568 C21.038,27.567 21.325,26.533 21.57,25.503 C21.582,25.453 21.582,25.404 21.582,25.352 C21.582,25.324 21.581,25.295 21.583,25.267 C21.592,25.117 21.573,24.974 21.526,24.841 L21.517,24.832 L21.513,24.802 C21.509,24.795 21.506,24.787 21.503,24.78 L21.496,24.761 C21.489,24.742 21.483,24.723 21.477,24.703 C21.469,24.673 21.461,24.645 21.448,24.624 C21.274,24.349 20.974,24.159 20.582,24.075 C19.38,23.816 18.101,23.551 16.837,23.398 C16.037,23.301 15.217,23.252 14.398,23.252 C12.63,23.252 10.836,23.467 8.911,23.907 C8.831,23.926 8.75,23.93 8.671,23.934 L8.421,23.942 L8.516,23.821 C8.606,23.704 8.708,23.67 8.787,23.652 C10.845,23.197 12.679,22.975 14.396,22.975 C15.166,22.975 15.925,23.02 16.654,23.108 C17.846,23.254 19.098,23.474 20.593,23.801 C21.099,23.91 21.46,24.138 21.669,24.478 C21.888,24.833 21.928,25.292 21.788,25.838 C21.721,26.1 21.647,26.364 21.576,26.621 L21.463,27.035 L20.679,29.882 L20.888,29.882 L22.249,29.884 C22.802,29.884 23.459,29.882 24.142,29.87 C24.233,29.869 24.39,29.747 24.445,29.634 Z M11.087,33.935 L11.149,33.935 C13.261,33.914 14.806,32.889 15.736,30.891 C15.825,30.704 16.057,30.556 16.236,30.496 C16.41,30.438 16.56,30.374 16.699,30.302 C16.739,30.554 16.766,30.811 16.766,31.073 C16.764,33.773 14.579,35.96 11.87,35.971 C9.4,35.979 7.37,34.173 7.013,31.793 C8.014,33.211 9.378,33.935 11.087,33.935 Z" id="Shape"></path>
                <path d="M23.632,30.138 C23.582,30.55 23.759,30.836 24.146,30.964 C24.526,31.09 25.093,31.26 25.646,31.267 C29.425,31.312 32.835,31.349 36.294,31.349 C36.819,31.349 37.345,31.348 37.872,31.346 C39.28,31.34 40.708,31.247 42.087,31.158 L43.052,31.096 C43.195,31.087 43.345,31 43.488,30.916 L43.513,30.901 C43.562,30.872 43.613,30.842 43.663,30.817 L43.636,30.737 L23.632,30.138 Z" id="Shape"></path>
                <path d="M48.786,14.723 C48.495,13.61 48.054,12.523 47.63,11.472 L47.571,11.325 C47.43,10.973 47.284,10.612 47.147,10.254 C46.829,9.42 46.588,8.518 46.991,7.585 C47.009,7.543 47.014,7.502 47.02,7.459 C47.024,7.438 47.026,7.416 47.032,7.395 C47.053,7.286 47.052,7.172 47.026,7.062 L47.022,7.037 C47.018,7.029 47.014,7.005 47.01,6.982 C47.002,6.94 46.994,6.904 46.977,6.864 C46.801,6.48 46.788,6.138 46.934,5.877 C47.075,5.628 47.352,5.47 47.741,5.42 C48.083,5.381 48.481,5.433 48.788,5.479 L48.85,5.488 C48.961,5.504 49.077,5.52 49.188,5.531 C49.389,5.552 49.586,5.582 49.77,5.613 L49.928,5.636 L50.1,0.929 C48.448,1.218 47.315,2.464 46.403,3.467 L46.079,3.824 L46.499,2.924 C46.243,3.016 45.993,3.106 45.749,3.194 L44.903,3.498 C44.262,3.727 44.229,3.771 44.344,4.529 C44.434,4.51 44.522,4.494 44.61,4.478 L44.71,4.459 C45.013,4.402 45.356,4.337 45.687,4.255 C46.033,4.17 46.265,4.316 46.316,4.602 C46.355,4.829 46.273,5.132 46.136,5.279 C45.865,5.565 45.55,5.817 45.271,6.039 C45.191,6.105 45.111,6.169 45.033,6.234 C44.847,6.383 44.863,6.505 44.969,6.719 C45.018,6.819 45.067,6.918 45.115,7.018 L45.199,7.188 C45.521,7.833 45.853,8.498 46.07,9.194 C46.375,10.169 46.654,11.171 46.924,12.139 L46.938,12.186 C47.266,13.364 47.606,14.582 47.993,15.76 C48.481,17.245 48.626,18.515 48.452,19.754 C47.934,23.415 46.04,26.045 42.823,27.57 C41.241,28.32 39.503,28.685 37.511,28.685 C36.659,28.685 35.765,28.618 34.777,28.483 C34.183,28.4 33.591,28.292 33.021,28.187 C32.787,28.144 32.544,28.1 32.3,28.056 C32.655,28.908 32.142,29.362 31.644,29.802 L31.601,29.841 C31.517,29.916 31.429,29.994 31.349,30.074 L31.361,30.076 C31.408,30.084 31.443,30.09 31.476,30.091 L32.896,30.133 C36.347,30.237 40.019,30.348 43.613,30.443 C43.775,30.443 43.99,30.339 44.101,30.21 C45.79,28.196 47.027,26.222 47.884,24.171 C49.278,20.828 49.573,17.737 48.786,14.723 Z" id="Shape"></path>
                <path d="M48.474,9.288 C48.279,8.805 48.072,8.322 47.839,7.787 L47.816,7.726 C47.73,7.53 47.646,7.331 47.556,7.123 C47.06,7.833 46.925,8.525 47.144,9.239 C47.419,10.132 47.8,11.026 48.138,11.815 L48.148,11.841 C49.156,14.197 49.582,16.46 49.447,18.758 C49.271,21.791 48.267,24.677 46.375,27.576 C45.947,28.231 45.496,28.853 45.018,29.512 L44.891,29.685 C44.739,29.895 44.584,30.109 44.428,30.325 C45.121,30.068 45.711,29.675 46.186,29.152 C48.801,26.277 50.227,22.849 50.426,18.965 C50.575,16.017 49.956,12.942 48.474,9.288 Z" id="Shape"></path>
                <path d="M62.399,20.449 C62.231,20.193 61.997,20.041 61.741,20.02 C61.378,19.992 60.991,19.979 60.526,19.979 C60.225,19.979 59.919,19.984 59.624,19.989 L59.565,19.991 C59.432,19.993 59.297,19.995 59.163,19.997 C60.411,20.315 61.536,20.891 62.587,21.744 C62.708,21.311 62.638,20.81 62.399,20.449 Z" id="Shape"></path>
                <path d="M51.714,16.513 L51.687,16.43 C51.472,15.778 51.255,15.116 50.98,14.493 C50.658,13.772 50.699,13.861 50.085,12.638 L50.065,12.596 C50.003,12.475 49.942,12.352 49.879,12.227 C50.77,15.856 51.315,19.726 49.801,23.629 C49.914,23.488 50.028,23.347 50.145,23.207 L50.233,23.101 C50.438,22.858 50.649,22.625 50.862,22.409 C50.885,22.385 50.909,22.361 50.934,22.339 C51.461,21.811 51.985,21.392 52.534,21.065 C52.548,21.057 52.561,21.048 52.577,21.041 L52.604,21.026 C52.659,20.993 52.713,20.961 52.772,20.929 C52.891,20.865 53.004,20.802 53.122,20.746 L52.274,20.275 L52.364,20.08 L53.553,19.955 L53.553,17.219 C53.448,17.198 53.35,17.178 53.252,17.158 L53.215,17.15 C52.887,17.083 52.551,17.012 52.207,16.968 C51.903,16.93 51.8,16.778 51.714,16.513 Z" id="Shape"></path>
                <path d="M51.228,4.646 C51.869,3.78 52.185,1.918 51.824,1.125 C51.314,1.572 50.988,2.142 50.883,2.777 C50.772,3.415 50.894,4.059 51.228,4.646 Z" id="Shape"></path>
                <path d="M50.901,4.671 C50.303,3.483 50.473,2.201 51.368,1.155 C51.442,1.068 51.518,0.982 51.6,0.89 L51.672,0.807 C51.442,0.726 51.242,0.684 51.076,0.684 C50.676,0.684 50.461,0.934 50.422,1.45 C50.348,2.385 50.315,3.345 50.283,4.273 L50.283,4.341 C50.269,4.728 50.256,5.129 50.24,5.527 C50.679,5.526 50.926,5.458 51.015,5.314 C51.093,5.189 51.054,4.979 50.901,4.671 Z" id="Shape"></path>
                <path d="M45.751,4.551 C45.597,4.565 45.439,4.62 45.286,4.674 L45.249,4.687 C45.21,4.701 45.173,4.714 45.134,4.727 L45.351,5.348 C45.402,5.327 45.453,5.307 45.503,5.287 C45.661,5.225 45.817,5.164 45.941,5.073 C46.021,5.014 46.084,4.818 46.054,4.723 C46.029,4.65 45.863,4.552 45.763,4.552 L45.763,4.479 L45.751,4.551 Z" id="Shape"></path>
                <path d="M28.184,13.708 C28.127,13.747 28.069,13.787 28.009,13.83 C27.785,13.984 27.557,14.137 27.323,14.24 L27.864,14.24 C28.622,13.583 29.501,13.478 30.348,13.478 C30.586,13.478 30.83,13.486 31.067,13.494 C31.27,13.5 31.479,13.508 31.688,13.51 L31.688,14.24 L31.983,14.24 C31.975,14.068 31.975,13.896 31.977,13.73 C31.979,13.665 31.979,13.599 31.979,13.527 C32,13.521 32.018,13.515 32.038,13.508 C32.065,13.497 32.081,13.493 32.087,13.493 L33.56,13.482 C34.156,13.479 34.374,13.291 34.464,12.708 C34.569,12.009 34.441,11.314 34.071,10.587 C33.88,10.212 33.729,10.021 33.438,10.021 C33.321,10.021 33.18,10.05 32.952,10.121 C31.897,10.447 30.833,10.612 29.788,10.612 C28.571,10.612 27.34,10.39 26.13,9.953 C25.251,9.635 24.412,9.28 23.706,8.974 C23.437,8.858 23.164,8.686 22.917,8.476 C22.519,8.137 22.045,7.951 21.581,7.951 C21.094,7.951 20.652,8.155 20.338,8.526 C20.259,8.617 20.226,8.837 20.26,8.966 C20.955,11.649 26.986,13.604 28.184,13.708 Z" id="Shape"></path>
                <path d="M14.06,33.871 C15.409,33.871 16.559,32.862 16.573,31.667 L16.574,31.653 L15.741,31.49 L15.728,31.488 L15.722,31.501 C15.339,32.511 14.638,33.262 13.576,33.797 L13.533,33.818 L13.581,33.828 C13.739,33.857 13.901,33.871 14.06,33.871 Z" id="Shape"></path>
                <path d="M4.479,20.739 C4.748,20.739 5.018,20.739 5.287,20.738 L5.365,20.737 C5.473,20.737 5.585,20.733 5.652,20.678 C6.051,20.347 6.449,20 6.834,19.665 C6.963,19.551 7.093,19.438 7.224,19.325 L7.261,19.292 L7.212,19.288 C7.129,19.28 7.046,19.271 6.963,19.262 C6.664,19.232 6.357,19.2 6.065,19.2 C5.737,19.2 5.465,19.24 5.232,19.325 C4.71,19.513 4.227,19.834 3.76,20.144 C3.561,20.277 3.354,20.414 3.148,20.538 L3.136,20.546 L3.169,20.738 L3.187,20.738 C3.616,20.739 4.046,20.739 4.479,20.739 Z" id="Shape"></path>
                <path d="M2.042,21.366 L2.07,21.356 C2.636,21.171 2.957,21.353 3.158,22.011 C3.229,22.24 3.334,22.454 3.446,22.682 C3.494,22.783 3.545,22.887 3.593,22.993 L3.608,23.024 L4.312,22.187 C4.663,21.769 5.021,21.343 5.408,20.883 L5.438,20.849 L2.042,20.849 L2.042,21.366 Z" id="Shape"></path>
                <path d="M2.448,21.414 L2.448,23.23 L3.52,23.23 C3.282,22.68 3.069,22.162 2.825,21.659 C2.776,21.555 2.604,21.51 2.448,21.414 Z" id="Shape"></path>
                <rect id="Rectangle-path" x="6.545" y="0.086" width="8.522" height="2.326"></rect>
                <rect id="Rectangle-path" x="15.902" y="0.086" width="3.684" height="2.326"></rect>
                <rect id="Rectangle-path" x="1.648" y="0.086" width="4.062" height="2.326"></rect>
                <rect id="Rectangle-path" x="5.71" y="2.412" width="1" height="1"></rect>
                <rect id="Rectangle-path" x="15.067" y="2.412" width="1" height="1"></rect>
            </g>
            <rect id="Rectangle-path" x="4.774" y="10.942" width="10.087" height="1.335"></rect>
            <rect id="Rectangle-path" x="2.184" y="16.288" width="12.677" height="1.336"></rect>
            <rect id="Rectangle-path" x="0.003" y="20.966" width="14.858" height="1.336"></rect>
        </g>
    </g>
</svg>