<?xml version="1.0" encoding="UTF-8"?>
<svg width="500px" height="500px" viewBox="0 0 500 500" version="1.1" xmlns="http://www.w3.org/2000/svg" xmlns:xlink="http://www.w3.org/1999/xlink">
    <!-- Generator: Sketch 42 (36781) - http://www.bohemiancoding.com/sketch -->
    <title>Artboard Copy</title>
    <desc>Created with Sketch.</desc>
    <defs></defs>
    <g id="Page-1" stroke="none" stroke-width="1" fill="none" fill-rule="evenodd">
        <g id="Artboard-Copy">
            <g id="Group-2" transform="translate(7.000000, 7.000000)">
                <path d="M329.409447,361.524551 C383.194965,345.384794 421.918526,315.040113 421.918526,279.936052 C219.159169,279.965314 230.806901,280.133185 63.1304344,279.936052 C63.1304344,315.022344 101.814802,345.354072 155.557848,361.500031 L155.557857,379.066578 L329.409438,379.066578 L329.409438,361.524554 Z M242,484 C108.347091,484 0,375.652909 0,242 C0,108.347091 108.347091,0 242,0 C375.652909,0 484,108.347091 484,242 C484,375.652909 375.652909,484 242,484 Z M421.836862,257.777109 L63.1304353,262.264578 L63.1677754,266.760867 L421.836862,268.921549 L421.836862,257.777109 Z M63.1304344,236.144625 L63.1304344,247.289065 L421.799521,245.128383 L421.836861,240.632094 L63.1304344,236.144625 Z M76.0365964,219.971486 C84.6781135,219.971486 91.7484458,212.901154 91.7484458,204.259637 L91.7484458,194.832527 C91.7484458,189.557835 89.0549858,184.956507 85.1270235,182.038593 C89.0549858,179.232905 91.7484458,174.51935 91.7484458,169.244658 L91.7484458,159.929776 C91.7484458,151.288259 84.6781135,144.217927 76.0365964,144.217927 L63.1304344,144.217927 L63.1304344,219.971486 L76.0365964,219.971486 Z M85.912616,204.259637 C85.912616,209.758784 81.5357437,214.135656 76.0365964,214.135656 L68.9662642,214.135656 L68.9662642,184.956507 L76.0365964,184.956507 C81.5357437,184.956507 85.912616,189.33338 85.912616,194.832527 L85.912616,204.259637 Z M68.9662642,179.120678 L68.9662642,150.053756 L76.0365964,150.053756 C81.5357437,150.053756 85.912616,154.430629 85.912616,159.929776 L85.912616,169.244658 C85.912616,174.743805 81.5357437,179.120678 76.0365964,179.120678 L68.9662642,179.120678 Z M121.142697,144.217927 L121.142697,206.504187 C121.142697,211.329969 117.214735,215.257931 112.388953,215.257931 C107.56317,215.257931 103.635208,211.329969 103.635208,206.504187 L103.635208,144.217927 L97.7993783,144.217927 L97.7993783,206.504187 C97.7993783,214.584566 104.308573,221.093761 112.388953,221.093761 C120.469332,221.093761 126.978527,214.584566 126.978527,206.504187 L126.978527,144.217927 L121.142697,144.217927 Z M140.436475,214.135656 L140.436475,144.217927 L134.600645,144.217927 L134.600645,219.971486 L158.729556,219.971486 L158.729556,214.135656 L140.436475,214.135656 Z M175.891011,219.971486 C184.532528,219.971486 191.60286,212.901154 191.60286,204.259637 L191.60286,194.832527 C191.60286,189.557835 188.9094,184.956507 184.981438,182.038593 C188.9094,179.232905 191.60286,174.51935 191.60286,169.244658 L191.60286,159.929776 C191.60286,151.288259 184.532528,144.217927 175.891011,144.217927 L162.984849,144.217927 L162.984849,219.971486 L175.891011,219.971486 Z M185.76703,204.259637 C185.76703,209.758784 181.390158,214.135656 175.891011,214.135656 L168.820678,214.135656 L168.820678,184.956507 L175.891011,184.956507 C181.390158,184.956507 185.76703,189.33338 185.76703,194.832527 L185.76703,204.259637 Z M168.820678,179.120678 L168.820678,150.053756 L175.891011,150.053756 C181.390158,150.053756 185.76703,154.430629 185.76703,159.929776 L185.76703,169.244658 C185.76703,174.743805 181.390158,179.120678 175.891011,179.120678 L168.820678,179.120678 Z M214.712372,144.217927 L204.836353,144.217927 L193.27692,219.971486 L199.11275,219.971486 L202.030665,200.556129 L217.405832,200.556129 L220.435974,219.971486 L226.271804,219.971486 L214.712372,144.217927 Z M209.662135,150.727121 L209.88659,150.727121 L216.508012,194.720299 L202.928485,194.720299 L209.662135,150.727121 Z M242.872121,186.976602 C251.513638,186.976602 258.58397,179.90627 258.58397,171.264753 L258.58397,159.929776 C258.58397,151.288259 251.513638,144.217927 242.872121,144.217927 L229.965959,144.217927 L229.965959,219.971486 L235.801789,219.971486 L235.801789,186.976602 L242.872121,186.976602 Z M299.182268,186.976602 L307.936012,186.976602 L307.936012,206.504187 C307.936012,211.329969 304.00805,215.257931 299.182268,215.257931 C294.356485,215.257931 290.428523,211.329969 290.428523,206.504187 L290.428523,157.685226 C290.428523,152.859444 294.356485,148.931481 299.182268,148.931481 C304.00805,148.931481 307.936012,152.859444 307.936012,157.685226 L307.936012,167.336791 L313.771842,166.663426 L313.771842,157.685226 C313.771842,149.604846 307.262647,143.095652 299.182268,143.095652 C291.101888,143.095652 284.592693,149.604846 284.592693,157.685226 L284.592693,206.504187 C284.592693,214.584566 291.101888,221.093761 299.182268,221.093761 C302.885775,221.093761 306.2526,219.747031 308.833832,217.502481 L308.833832,220.083714 L313.771842,221.093761 L313.771842,181.140773 L299.182268,181.140773 L299.182268,186.976602 Z M349.114151,194.832527 C349.114151,189.557835 346.420691,184.956507 342.492729,182.038593 C346.420691,179.232905 349.114151,174.51935 349.114151,169.244658 L349.114151,159.929776 C349.114151,151.288259 342.043819,144.217927 333.402301,144.217927 L320.496139,144.217927 L320.496139,219.971486 L326.331969,219.971486 L326.331969,184.956507 L333.402301,184.956507 C338.901449,184.956507 343.278321,189.33338 343.278321,194.832527 L343.278321,219.971486 L349.114151,219.971486 L349.114151,194.832527 Z M326.331969,179.120678 L326.331969,150.053756 L333.402301,150.053756 C338.901449,150.053756 343.278321,154.430629 343.278321,159.929776 L343.278321,169.244658 C343.278321,174.743805 338.901449,179.120678 333.402301,179.120678 L326.331969,179.120678 Z M361.562051,219.971486 L361.562051,144.217927 L355.726221,144.217927 L355.726221,219.971486 L361.562051,219.971486 Z M375.244453,214.135656 L375.244453,144.217927 L369.408623,144.217927 L369.408623,219.971486 L393.537535,219.971486 L393.537535,214.135656 L375.244453,214.135656 Z M403.628657,214.135656 L403.628657,144.217927 L397.792827,144.217927 L397.792827,219.971486 L421.921739,219.971486 L421.921739,214.135656 L403.628657,214.135656 Z" id="Combined-Shape" fill="#5E9426" fill-rule="nonzero"></path>
                <g id="Group" transform="translate(63.130434, 256.095652)">
                    <g id="Group-6" transform="translate(0.000000, 0.591303)">
                        <g id="Group-Copy-4" transform="translate(0.000000, 0.457670)"></g>
                    </g>
                </g>
                <path d="M235.801789,181.140773 L235.801789,150.053756 L242.872121,150.053756 C248.371269,150.053756 252.748141,154.430629 252.748141,159.929776 L252.748141,171.264753 C252.748141,176.7639 248.371269,181.140773 242.872121,181.140773 L235.801789,181.140773 Z" id="BULBAP-GRILL-path" fill="#5E9426"></path>
            </g>
        </g>
    </g>
</svg>