<?xml version="1.0" encoding="UTF-8"?>
<svg width="2000px" height="1335px" viewBox="0 0 2000 1335" version="1.1" xmlns="http://www.w3.org/2000/svg" xmlns:xlink="http://www.w3.org/1999/xlink">
    <!-- Generator: Sketch 43.2 (39069) - http://www.bohemiancoding.com/sketch -->
    <title>home-hero-layer</title>
    <desc>Created with Sketch.</desc>
    <defs></defs>
    <g id="Page-1" stroke="none" stroke-width="1" fill="none" fill-rule="evenodd" fill-opacity="0.6">
        <g id="home-hero-layer" fill="#5E9426">
            <path d="M-481,-321 L2481,-321 L2481,1655 L-481,1655 L-481,-321 Z M615.909731,568.44168 L588.086018,568.44168 L588.086018,405.090372 L615.909731,405.090372 C634.539522,405.090372 649.782078,420.336494 649.782078,438.970643 L649.782078,459.056804 C649.782078,470.430895 643.97539,480.594977 635.507303,486.645025 C643.97539,492.937075 649.782078,502.859155 649.782078,514.233246 L649.782078,534.561409 C649.782078,553.195558 634.539522,568.44168 615.909731,568.44168 Z M637.200921,534.561409 L637.200921,514.233246 C637.200921,502.375151 627.765053,492.937075 615.909731,492.937075 L600.667175,492.937075 L600.667175,555.857579 L615.909731,555.857579 C627.765053,555.857579 637.200921,546.419504 637.200921,534.561409 Z M600.667175,480.352975 L615.909731,480.352975 C627.765053,480.352975 637.200921,470.914899 637.200921,459.056804 L637.200921,438.970643 C637.200921,427.112548 627.765053,417.674473 615.909731,417.674473 L600.667175,417.674473 L600.667175,480.352975 Z M715.112636,405.090372 L727.693793,405.090372 L727.693793,539.401448 C727.693793,556.825587 713.660964,570.8617 696.2409,570.8617 C678.820836,570.8617 664.788006,556.825587 664.788006,539.401448 L664.788006,405.090372 L677.369164,405.090372 L677.369164,539.401448 C677.369164,549.807531 685.83725,558.277599 696.2409,558.277599 C706.644549,558.277599 715.112636,549.807531 715.112636,539.401448 L715.112636,405.090372 Z M758.668114,555.857579 L798.105203,555.857579 L798.105203,568.44168 L746.086956,568.44168 L746.086956,405.090372 L758.668114,405.090372 L758.668114,555.857579 Z M837.063719,568.44168 L809.240006,568.44168 L809.240006,405.090372 L837.063719,405.090372 C855.69351,405.090372 870.936066,420.336494 870.936066,438.970643 L870.936066,459.056804 C870.936066,470.430895 865.129378,480.594977 856.661291,486.645025 C865.129378,492.937075 870.936066,502.859155 870.936066,514.233246 L870.936066,534.561409 C870.936066,553.195558 855.69351,568.44168 837.063719,568.44168 Z M858.354909,534.561409 L858.354909,514.233246 C858.354909,502.375151 848.919041,492.937075 837.063719,492.937075 L821.821163,492.937075 L821.821163,555.857579 L837.063719,555.857579 C848.919041,555.857579 858.354909,546.419504 858.354909,534.561409 Z M821.821163,480.352975 L837.063719,480.352975 C848.919041,480.352975 858.354909,470.914899 858.354909,459.056804 L858.354909,438.970643 C858.354909,427.112548 848.919041,417.674473 837.063719,417.674473 L821.821163,417.674473 L821.821163,480.352975 Z M922.717685,405.090372 L947.638055,568.44168 L935.056897,568.44168 L928.524373,526.575345 L895.377862,526.575345 L889.087284,568.44168 L876.506126,568.44168 L901.426496,405.090372 L922.717685,405.090372 Z M911.830145,419.126484 L897.313425,513.991244 L926.588811,513.991244 L912.314036,419.126484 L911.830145,419.126484 Z M970.144288,484.70901 L970.144288,417.674473 L985.386844,417.674473 C997.242166,417.674473 1006.67803,427.112548 1006.67803,438.970643 L1006.67803,463.412839 C1006.67803,475.270934 997.242166,484.70901 985.386844,484.70901 L970.144288,484.70901 Z M985.386844,497.29311 C1004.01664,497.29311 1019.25919,482.046988 1019.25919,463.412839 L1019.25919,438.970643 C1019.25919,420.336494 1004.01664,405.090372 985.386844,405.090372 L957.563131,405.090372 L957.563131,568.44168 L970.144288,568.44168 L970.144288,497.29311 L985.386844,497.29311 Z M1139.28535,497.29311 L1158.15708,497.29311 L1158.15708,539.401448 C1158.15708,549.807531 1149.689,558.277599 1139.28535,558.277599 C1128.8817,558.277599 1120.41361,549.807531 1120.41361,539.401448 L1120.41361,434.130604 C1120.41361,423.724521 1128.8817,415.254453 1139.28535,415.254453 C1149.689,415.254453 1158.15708,423.724521 1158.15708,434.130604 L1158.15708,454.942771 L1170.73824,453.490759 L1170.73824,434.130604 C1170.73824,416.706465 1156.70541,402.670352 1139.28535,402.670352 C1121.86528,402.670352 1107.83245,416.706465 1107.83245,434.130604 L1107.83245,539.401448 C1107.83245,556.825587 1121.86528,570.8617 1139.28535,570.8617 C1147.26954,570.8617 1154.5279,567.957676 1160.09265,563.117638 L1160.09265,568.683682 L1170.73824,570.8617 L1170.73824,484.70901 L1139.28535,484.70901 L1139.28535,497.29311 Z M1248.8919,514.233246 L1248.8919,568.44168 L1236.31074,568.44168 L1236.31074,514.233246 C1236.31074,502.375151 1226.87488,492.937075 1215.01955,492.937075 L1199.777,492.937075 L1199.777,568.44168 L1187.19584,568.44168 L1187.19584,405.090372 L1215.01955,405.090372 C1233.64934,405.090372 1248.8919,420.336494 1248.8919,438.970643 L1248.8919,459.056804 C1248.8919,470.430895 1243.08521,480.594977 1234.61713,486.645025 C1243.08521,492.937075 1248.8919,502.859155 1248.8919,514.233246 Z M1199.777,480.352975 L1215.01955,480.352975 C1226.87488,480.352975 1236.31074,470.914899 1236.31074,459.056804 L1236.31074,438.970643 C1236.31074,427.112548 1226.87488,417.674473 1215.01955,417.674473 L1199.777,417.674473 L1199.777,480.352975 Z M1277.68871,568.44168 L1277.68871,405.090372 L1265.10756,405.090372 L1265.10756,568.44168 L1277.68871,568.44168 Z M1309.14692,555.857579 L1309.14692,405.090372 L1296.56577,405.090372 L1296.56577,568.44168 L1348.58401,568.44168 L1348.58401,555.857579 L1309.14692,555.857579 Z M1372.29997,555.857579 L1372.29997,405.090372 L1359.71882,405.090372 L1359.71882,568.44168 L1411.73706,568.44168 L1411.73706,555.857579 L1372.29997,555.857579 Z M588.086018,604.542473 L1411.73706,614.838361 L1411.65132,625.154485 L588.086018,630.111876 L588.086018,604.542473 Z M1411.73706,655.085034 L588.086018,665.380922 L588.171757,675.697046 L1411.73706,680.654437 L1411.73706,655.085034 Z M1199.50796,893.119449 L1199.50796,933.367241 L800.315122,933.367241 L800.315122,893.063191 C676.911914,856.018476 588.086018,786.426447 588.086018,705.925717 C973.099742,706.378013 946.354566,705.992855 1411.92458,705.925717 C1411.92458,786.467216 1323.00869,856.088962 1199.50798,893.119443 L1199.50796,893.119449 Z" id="Combined-Shape"></path>
        </g>
    </g>
</svg>