<?xml version="1.0" encoding="UTF-8"?>
<svg width="337px" height="100px" viewBox="0 0 337 100" version="1.1" xmlns="http://www.w3.org/2000/svg" xmlns:xlink="http://www.w3.org/1999/xlink">
    <!-- Generator: Sketch 43.2 (39069) - http://www.bohemiancoding.com/sketch -->
    <title>Inline-Logo</title>
    <desc>Created with Sketch.</desc>
    <defs></defs>
    <g id="Page-1" stroke="none" stroke-width="1" fill="none" fill-rule="evenodd">
        <g id="Inline-Logo" fill-rule="nonzero">
            <g id="Group-2">
                <circle id="Oval-2" fill="#4C9F00" cx="50" cy="50" r="50"></circle>
                <g id="Group" transform="translate(15.000000, 27.000000)" fill="#FFFFFF">
                    <g id="Group-6" transform="translate(0.000000, 17.962111)">
                        <g id="Group-Copy-4" transform="translate(0.000000, 0.088785)">
                            <polygon id="Rectangle-4-Copy-3" transform="translate(34.793358, 5.277536) scale(-1, 1) translate(-34.793358, -5.277536) " points="1.70713408e-07 4.19656133 69.5867165 5.06710118 69.5794728 5.93935203 1.70713408e-07 6.35851028"></polygon>
                            <polygon id="Rectangle-4-Copy-3" points="0 0 69.5867163 0.870539851 69.5794726 1.7427907 0 2.16194896"></polygon>
                            <rect id="Rectangle-3" x="17.9303195" y="19.1789624" width="33.7260772" height="8.54696806"></rect>
                            <path d="M34.8012794,26.7250108 C52.9539869,26.7250108 69.6025588,18.6332411 69.6025588,8.4952523 C30.2685609,8.50092894 32.5281452,8.53349492 0,8.4952523 C0,18.6332411 16.6485719,26.7250108 34.8012794,26.7250108 Z" id="Oval"></path>
                        </g>
                    </g>
                    <path d="M2.50371158,14.9134125 C4.18010976,14.9134125 5.55170828,13.541814 5.55170828,11.8654157 L5.55170828,10.0366177 C5.55170828,9.0133617 5.02919456,8.12073408 4.26719539,7.55467755 C5.02919456,7.01039242 5.55170828,6.09599341 5.55170828,5.07273737 L5.55170828,3.26571076 C5.55170828,1.58931257 4.18010976,0.21771405 2.50371158,0.21771405 L0,0.21771405 L0,14.9134125 L2.50371158,14.9134125 Z M4.41959522,11.8654157 C4.41959522,12.9322146 3.57051042,13.7812994 2.50371158,13.7812994 L1.13211306,13.7812994 L1.13211306,8.12073408 L2.50371158,8.12073408 C3.57051042,8.12073408 4.41959522,8.96981889 4.41959522,10.0366177 L4.41959522,11.8654157 Z M1.13211306,6.98862101 L1.13211306,1.34982711 L2.50371158,1.34982711 C3.57051042,1.34982711 4.41959522,2.19891191 4.41959522,3.26571076 L4.41959522,5.07273737 C4.41959522,6.13953622 3.57051042,6.98862101 2.50371158,6.98862101 L1.13211306,6.98862101 Z M11.2540021,0.21771405 L11.2540021,12.3008439 C11.2540021,13.2370143 10.492003,13.9990134 9.55583254,13.9990134 C8.61966213,13.9990134 7.85766295,13.2370143 7.85766295,12.3008439 L7.85766295,0.21771405 L6.72554989,0.21771405 L6.72554989,12.3008439 C6.72554989,13.868385 7.98829138,15.1311265 9.55583254,15.1311265 C11.1233737,15.1311265 12.3861152,13.868385 12.3861152,12.3008439 L12.3861152,0.21771405 L11.2540021,0.21771405 Z M14.9968696,13.7812994 L14.9968696,0.21771405 L13.8647565,0.21771405 L13.8647565,14.9134125 L18.5456085,14.9134125 L18.5456085,13.7812994 L14.9968696,13.7812994 Z M21.8748192,14.9134125 C23.5512174,14.9134125 24.922816,13.541814 24.922816,11.8654157 L24.922816,10.0366177 C24.922816,9.0133617 24.4003022,8.12073408 23.6383031,7.55467755 C24.4003022,7.01039242 24.922816,6.09599341 24.922816,5.07273737 L24.922816,3.26571076 C24.922816,1.58931257 23.5512174,0.21771405 21.8748192,0.21771405 L19.3711077,0.21771405 L19.3711077,14.9134125 L21.8748192,14.9134125 Z M23.7907029,11.8654157 C23.7907029,12.9322146 22.9416181,13.7812994 21.8748192,13.7812994 L20.5032207,13.7812994 L20.5032207,8.12073408 L21.8748192,8.12073408 C22.9416181,8.12073408 23.7907029,8.96981889 23.7907029,10.0366177 L23.7907029,11.8654157 Z M20.5032207,6.98862101 L20.5032207,1.34982711 L21.8748192,1.34982711 C22.9416181,1.34982711 23.7907029,2.19891191 23.7907029,3.26571076 L23.7907029,5.07273737 C23.7907029,6.13953622 22.9416181,6.98862101 21.8748192,6.98862101 L20.5032207,6.98862101 Z M29.4059112,0.21771405 L27.4900275,0.21771405 L25.2475728,14.9134125 L26.3796859,14.9134125 L26.9457423,11.1469594 L29.9284249,11.1469594 L30.5162528,14.9134125 L31.6483658,14.9134125 L29.4059112,0.21771405 Z M28.4261979,1.48045554 L28.4697407,1.48045554 L29.7542537,10.0148463 L27.1199136,10.0148463 L28.4261979,1.48045554 Z M33.497121,7.3805063 L33.497121,1.34982711 L34.8687196,1.34982711 C35.9355184,1.34982711 36.7846032,2.19891191 36.7846032,3.26571076 L36.7846032,5.46462266 C36.7846032,6.53142151 35.9355184,7.3805063 34.8687196,7.3805063 L33.497121,7.3805063 Z M34.8687196,8.51261937 C36.5451177,8.51261937 37.9167162,7.14102085 37.9167162,5.46462266 L37.9167162,3.26571076 C37.9167162,1.58931257 36.5451177,0.21771405 34.8687196,0.21771405 L32.3650079,0.21771405 L32.3650079,14.9134125 L33.497121,14.9134125 L33.497121,8.51261937 L34.8687196,8.51261937 Z M45.7925221,8.51261937 L47.4906917,8.51261937 L47.4906917,12.3008439 C47.4906917,13.2370143 46.7286925,13.9990134 45.7925221,13.9990134 C44.8563517,13.9990134 44.0943524,13.2370143 44.0943524,12.3008439 L44.0943524,2.83028266 C44.0943524,1.89411224 44.8563517,1.13211306 45.7925221,1.13211306 C46.7286925,1.13211306 47.4906917,1.89411224 47.4906917,2.83028266 L47.4906917,4.70262349 L48.6228047,4.57199506 L48.6228047,2.83028266 C48.6228047,1.26274149 47.3600632,0 45.7925221,0 C44.2249809,0 42.9622394,1.26274149 42.9622394,2.83028266 L42.9622394,12.3008439 C42.9622394,13.868385 44.2249809,15.1311265 45.7925221,15.1311265 C46.5109785,15.1311265 47.1641206,14.8698697 47.6648629,14.4344416 L47.6648629,14.9351839 L48.6228047,15.1311265 L48.6228047,7.3805063 L45.7925221,7.3805063 L45.7925221,8.51261937 Z M55.4789831,10.0366177 C55.4789831,9.0133617 54.9564693,8.12073408 54.1944702,7.55467755 C54.9564693,7.01039242 55.4789831,6.09599341 55.4789831,5.07273737 L55.4789831,3.26571076 C55.4789831,1.58931257 54.1073845,0.21771405 52.4309863,0.21771405 L49.9272748,0.21771405 L49.9272748,14.9134125 L51.0593878,14.9134125 L51.0593878,8.12073408 L52.4309863,8.12073408 C53.4977852,8.12073408 54.34687,8.96981889 54.34687,10.0366177 L54.34687,14.9134125 L55.4789831,14.9134125 L55.4789831,10.0366177 Z M51.0593878,6.98862101 L51.0593878,1.34982711 L52.4309863,1.34982711 C53.4977852,1.34982711 54.34687,2.19891191 54.34687,3.26571076 L54.34687,5.07273737 C54.34687,6.13953622 53.4977852,6.98862101 52.4309863,6.98862101 L51.0593878,6.98862101 Z M57.8937947,14.9134125 L57.8937947,0.21771405 L56.7616817,0.21771405 L56.7616817,14.9134125 L57.8937947,14.9134125 Z M60.5480919,13.7812994 L60.5480919,0.21771405 L59.4159788,0.21771405 L59.4159788,14.9134125 L64.0968309,14.9134125 L64.0968309,13.7812994 L60.5480919,13.7812994 Z M66.0544431,13.7812994 L66.0544431,0.21771405 L64.92233,0.21771405 L64.92233,14.9134125 L69.6031822,14.9134125 L69.6031822,13.7812994 L66.0544431,13.7812994 Z" id="BULBAP-GRILL"></path>
                </g>
            </g>
            <path d="M127.776979,73.323741 C132.984174,73.323741 137.244604,69.0633094 137.244604,63.8561152 L137.244604,58.1755397 C137.244604,54.9971224 135.621583,52.2244604 133.254676,50.4661871 C135.621583,48.7755396 137.244604,45.9352518 137.244604,42.7568345 L137.244604,37.143885 C137.244604,31.9366908 132.984174,27.676259 127.776979,27.676259 L120,27.676259 L120,73.323741 L127.776979,73.323741 Z M133.728059,63.8561152 C133.728059,67.1697842 131.090648,69.8071943 127.776979,69.8071943 L123.516548,69.8071943 L123.516548,52.2244604 L127.776979,52.2244604 C131.090648,52.2244604 133.728059,54.8618705 133.728059,58.1755397 L133.728059,63.8561152 Z M123.516548,48.7079137 L123.516548,31.1928058 L127.776979,31.1928058 C131.090648,31.1928058 133.728059,33.8302158 133.728059,37.143885 L133.728059,42.7568345 C133.728059,46.0705037 131.090648,48.7079137 127.776979,48.7079137 L123.516548,48.7079137 Z M154.956954,27.676259 L154.956954,65.2086331 C154.956954,68.1165468 152.590047,70.4834534 149.682134,70.4834534 C146.774221,70.4834534 144.407314,68.1165468 144.407314,65.2086331 L144.407314,27.676259 L140.890768,27.676259 L140.890768,65.2086331 C140.890768,70.0776979 144.813069,74 149.682134,74 C154.551199,74 158.473502,70.0776979 158.473502,65.2086331 L158.473502,27.676259 L154.956954,27.676259 Z M166.582973,69.8071943 L166.582973,27.676259 L163.066428,27.676259 L163.066428,73.323741 L177.605994,73.323741 L177.605994,69.8071943 L166.582973,69.8071943 Z M187.947123,73.323741 C193.154317,73.323741 197.414749,69.0633094 197.414749,63.8561152 L197.414749,58.1755397 C197.414749,54.9971224 195.791727,52.2244604 193.424821,50.4661871 C195.791727,48.7755396 197.414749,45.9352518 197.414749,42.7568345 L197.414749,37.143885 C197.414749,31.9366908 193.154317,27.676259 187.947123,27.676259 L180.170145,27.676259 L180.170145,73.323741 L187.947123,73.323741 Z M193.898202,63.8561152 C193.898202,67.1697842 191.260792,69.8071943 187.947123,69.8071943 L183.686692,69.8071943 L183.686692,52.2244604 L187.947123,52.2244604 C191.260792,52.2244604 193.898202,54.8618705 193.898202,58.1755397 L193.898202,63.8561152 Z M183.686692,48.7079137 L183.686692,31.1928058 L187.947123,31.1928058 C191.260792,31.1928058 193.898202,33.8302158 193.898202,37.143885 L193.898202,42.7568345 C193.898202,46.0705037 191.260792,48.7079137 187.947123,48.7079137 L183.686692,48.7079137 Z M211.34005,27.676259 L205.38897,27.676259 L198.423501,73.323741 L201.940048,73.323741 L203.698322,61.6244606 L212.96307,61.6244606 L214.788969,73.323741 L218.305516,73.323741 L211.34005,27.676259 Z M208.296883,31.5985612 L208.432134,31.5985612 L212.422063,58.1079137 L204.23933,58.1079137 L208.296883,31.5985612 Z M224.048082,49.9251799 L224.048082,31.1928058 L228.308514,31.1928058 C231.622182,31.1928058 234.259592,33.8302158 234.259592,37.143885 L234.259592,43.9741008 C234.259592,47.2877698 231.622182,49.9251799 228.308514,49.9251799 L224.048082,49.9251799 Z M228.308514,53.4417267 C233.515708,53.4417267 237.77614,49.1812949 237.77614,43.9741008 L237.77614,37.143885 C237.77614,31.9366908 233.515708,27.676259 228.308514,27.676259 L220.531536,27.676259 L220.531536,73.323741 L224.048081,73.323741 L224.048081,53.4417267 L228.308514,53.4417267 Z M262.239808,53.4417267 L267.51463,53.4417267 L267.51463,65.2086331 C267.51463,68.1165468 265.147723,70.4834534 262.239808,70.4834534 C259.331895,70.4834534 256.964988,68.1165468 256.964988,65.2086331 L256.964988,35.7913669 C256.964988,32.8834532 259.331895,30.5165468 262.239808,30.5165468 C265.147723,30.5165468 267.51463,32.8834532 267.51463,35.7913669 L267.51463,41.6071943 L271.031175,41.201439 L271.031175,35.7913669 C271.031175,30.9223021 267.108874,27 262.239808,27 C257.370744,27 253.448442,30.9223021 253.448442,35.7913669 L253.448442,65.2086331 C253.448442,70.0776979 257.370744,74 262.239808,74 C264.471464,74 266.500241,73.1884893 268.055636,71.8359713 L268.055636,73.391367 L271.031175,74 L271.031175,49.9251799 L262.239808,49.9251799 L262.239808,53.4417267 Z M292.327698,58.1755397 C292.327698,54.9971224 290.704677,52.2244604 288.33777,50.4661871 C290.704677,48.7755396 292.327698,45.9352518 292.327698,42.7568345 L292.327698,37.143885 C292.327698,31.9366908 288.067268,27.676259 282.860074,27.676259 L275.083094,27.676259 L275.083094,73.323741 L278.599641,73.323741 L278.599641,52.2244604 L282.860074,52.2244604 C286.173741,52.2244604 288.811152,54.8618705 288.811152,58.1755397 L288.811152,73.323741 L292.327698,73.323741 L292.327698,58.1755397 Z M278.599641,48.7079137 L278.599641,31.1928058 L282.860074,31.1928058 C286.173741,31.1928058 288.811152,33.8302158 288.811152,37.143885 L288.811152,42.7568345 C288.811152,46.0705037 286.173741,48.7079137 282.860074,48.7079137 L278.599641,48.7079137 Z M299.828539,73.323741 L299.828539,27.676259 L296.311992,27.676259 L296.311992,73.323741 L299.828539,73.323741 Z M308.073262,69.8071943 L308.073262,27.676259 L304.556717,27.676259 L304.556717,73.323741 L319.096283,73.323741 L319.096283,69.8071943 L308.073262,69.8071943 Z M325.176979,69.8071943 L325.176979,27.676259 L321.660433,27.676259 L321.660433,73.323741 L336.200001,73.323741 L336.200001,69.8071943 L325.176979,69.8071943 Z" id="BULBAP-GRILL" fill="#4A4A4A"></path>
        </g>
    </g>
</svg>