<?xml version="1.0" encoding="UTF-8"?>
<svg width="460px" height="110px" viewBox="0 0 460 110" version="1.1" xmlns="http://www.w3.org/2000/svg" xmlns:xlink="http://www.w3.org/1999/xlink">
    <!-- Generator: Sketch 41.2 (35397) - http://www.bohemiancoding.com/sketch -->
    <title>Inline-Logo</title>
    <desc>Created with Sketch.</desc>
    <defs></defs>
    <g id="Page-1" stroke="none" stroke-width="1" fill="none" fill-rule="evenodd">
        <g id="Inline-Logo">
            <path d="M132.230216,90.8495462 C140.419143,90.8495462 147.119174,84.149515 147.119174,75.9605879 L147.119174,67.0272129 C147.119174,62.0287768 144.566781,57.668439 140.844542,54.9033468 C144.566781,52.2446042 147.119174,47.7779167 147.119174,42.7794807 L147.119174,33.9524554 C147.119174,25.7635283 140.419143,19.063497 132.230216,19.063497 L120,19.063497 L120,90.8495462 L132.230216,90.8495462 Z M141.58899,75.9605879 C141.58899,81.1717233 137.441351,85.3193617 132.230216,85.3193617 L125.530185,85.3193617 L125.530185,57.668439 L132.230216,57.668439 C137.441351,57.668439 141.58899,61.8160774 141.58899,67.0272129 L141.58899,75.9605879 Z M125.530185,52.1382545 L125.530185,24.5936816 L132.230216,24.5936816 C137.441351,24.5936816 141.58899,28.74132 141.58899,33.9524554 L141.58899,42.7794807 C141.58899,47.9906161 137.441351,52.1382545 132.230216,52.1382545 L125.530185,52.1382545 Z M174.973934,19.063497 L174.973934,78.0875819 C174.973934,82.6606191 171.251694,86.3828587 166.678657,86.3828587 C162.10562,86.3828587 158.38338,82.6606191 158.38338,78.0875819 L158.38338,19.063497 L152.853196,19.063497 L152.853196,78.0875819 C152.853196,85.7447605 159.021478,91.9130432 166.678657,91.9130432 C174.335836,91.9130432 180.504118,85.7447605 180.504118,78.0875819 L180.504118,19.063497 L174.973934,19.063497 Z M193.25722,85.3193617 L193.25722,19.063497 L187.727036,19.063497 L187.727036,90.8495462 L210.592222,90.8495462 L210.592222,85.3193617 L193.25722,85.3193617 Z M226.854864,90.8495462 C235.043791,90.8495462 241.743822,84.149515 241.743822,75.9605879 L241.743822,67.0272129 C241.743822,62.0287768 239.191429,57.668439 235.46919,54.9033468 C239.191429,52.2446042 241.743822,47.7779167 241.743822,42.7794807 L241.743822,33.9524554 C241.743822,25.7635283 235.043791,19.063497 226.854864,19.063497 L214.624648,19.063497 L214.624648,90.8495462 L226.854864,90.8495462 Z M236.213638,75.9605879 C236.213638,81.1717233 232.065999,85.3193617 226.854864,85.3193617 L220.154833,85.3193617 L220.154833,57.668439 L226.854864,57.668439 C232.065999,57.668439 236.213638,61.8160774 236.213638,67.0272129 L236.213638,75.9605879 Z M220.154833,52.1382545 L220.154833,24.5936816 L226.854864,24.5936816 C232.065999,24.5936816 236.213638,28.74132 236.213638,33.9524554 L236.213638,42.7794807 C236.213638,47.9906161 232.065999,52.1382545 226.854864,52.1382545 L220.154833,52.1382545 Z M263.642999,19.063497 L254.284225,19.063497 L243.330205,90.8495462 L248.86039,90.8495462 L251.625482,72.4510477 L266.195391,72.4510477 L269.066833,90.8495462 L274.597018,90.8495462 L263.642999,19.063497 Z M258.857262,25.2317798 L259.069961,25.2317798 L265.344594,66.9208631 L252.47628,66.9208631 L258.857262,25.2317798 Z M283.62788,54.0525491 L283.62788,24.5936816 L290.327911,24.5936816 C295.539047,24.5936816 299.686685,28.74132 299.686685,33.9524554 L299.686685,44.6937753 C299.686685,49.9049107 295.539047,54.0525491 290.327911,54.0525491 L283.62788,54.0525491 Z M290.327911,59.5827337 C298.516839,59.5827337 305.21687,52.8827024 305.21687,44.6937753 L305.21687,33.9524554 C305.21687,25.7635283 298.516839,19.063497 290.327911,19.063497 L278.097696,19.063497 L278.097696,90.8495462 L283.62788,90.8495462 L283.62788,59.5827337 L290.327911,59.5827337 Z M343.688875,59.5827337 L351.984152,59.5827337 L351.984152,78.0875819 C351.984152,82.6606191 348.261912,86.3828587 343.688875,86.3828587 C339.115838,86.3828587 335.393598,82.6606191 335.393598,78.0875819 L335.393598,31.8254613 C335.393598,27.2524241 339.115838,23.5301845 343.688875,23.5301845 C348.261912,23.5301845 351.984152,27.2524241 351.984152,31.8254613 L351.984152,40.9715357 L357.514336,40.3334375 L357.514336,31.8254613 C357.514336,24.1682827 351.346054,18 343.688875,18 C336.031696,18 329.863414,24.1682827 329.863414,31.8254613 L329.863414,78.0875819 C329.863414,85.7447605 336.031696,91.9130432 343.688875,91.9130432 C347.198415,91.9130432 350.388906,90.6368468 352.834949,88.5098528 L352.834949,90.9558959 L357.514336,91.9130432 L357.514336,54.0525491 L343.688875,54.0525491 L343.688875,59.5827337 Z M391.00563,67.0272129 C391.00563,62.0287768 388.453237,57.668439 384.730998,54.9033468 C388.453237,52.2446042 391.00563,47.7779167 391.00563,42.7794807 L391.00563,33.9524554 C391.00563,25.7635283 384.305599,19.063497 376.116672,19.063497 L363.886456,19.063497 L363.886456,90.8495462 L369.416641,90.8495462 L369.416641,57.668439 L376.116672,57.668439 C381.327807,57.668439 385.475446,61.8160774 385.475446,67.0272129 L385.475446,90.8495462 L391.00563,90.8495462 L391.00563,67.0272129 Z M369.416641,52.1382545 L369.416641,24.5936816 L376.116672,24.5936816 C381.327807,24.5936816 385.475446,28.74132 385.475446,33.9524554 L385.475446,42.7794807 C385.475446,47.9906161 381.327807,52.1382545 376.116672,52.1382545 L369.416641,52.1382545 Z M402.801585,90.8495462 L402.801585,19.063497 L397.2714,19.063497 L397.2714,90.8495462 L402.801585,90.8495462 Z M415.767386,85.3193617 L415.767386,19.063497 L410.237202,19.063497 L410.237202,90.8495462 L433.102388,90.8495462 L433.102388,85.3193617 L415.767386,85.3193617 Z M442.664998,85.3193617 L442.664998,19.063497 L437.134814,19.063497 L437.134814,90.8495462 L460,90.8495462 L460,85.3193617 L442.664998,85.3193617 Z" id="BULBAP-GRILL" fill="#4A4A4A"></path>
            <g id="Group-2">
                <circle id="Oval-2" fill="#5E9426" cx="55" cy="55" r="55"></circle>
                <g id="Group" transform="translate(14.347826, 32.521739)" fill="#FFFFFF">
                    <g id="Group-6" transform="translate(0.000000, 21.043478)">
                        <g id="Group-Copy-4" transform="translate(0.000000, 0.104016)">
                            <polygon id="Rectangle-4-Copy-3" transform="translate(40.762094, 6.182887) scale(-1, 1) translate(-40.762094, -6.182887) " points="3.75166564e-14 4.9164736 81.5241878 5.93635294 81.5157014 6.9582368 3.75166564e-14 7.44930087"></polygon>
                            <polygon id="Rectangle-4-Copy-3" points="0 0 81.5241878 1.01987934 81.5157014 2.0417632 0 2.53282727"></polygon>
                            <rect id="Rectangle-3" x="21.0062324" y="22.4690776" width="39.5117229" height="10.0131845"></rect>
                            <path d="M40.771374,31.3096366 C62.0381446,31.3096366 81.542748,21.8297389 81.542748,9.952597 C35.4610761,9.95924745 38.1082879,9.99740006 0,9.952597 C0,21.8297389 19.5046034,31.3096366 40.771374,31.3096366 Z" id="Oval"></path>
                        </g>
                    </g>
                    <path d="M2.93321863,17.4717806 C4.8971998,17.4717806 6.50409349,15.8648869 6.50409349,13.9009057 L6.50409349,11.7583808 C6.50409349,10.5595871 5.89194351,9.51383087 4.9992248,8.8506684 C5.89194351,8.21301217 6.50409349,7.14174971 6.50409349,5.94295601 L6.50409349,3.82593735 C6.50409349,1.86195618 4.8971998,0.25506249 2.93321863,0.25506249 L0,0.25506249 L0,17.4717806 L2.93321863,17.4717806 Z M5.17776854,13.9009057 C5.17776854,15.1507119 4.18302483,16.1454556 2.93321863,16.1454556 L1.32632495,16.1454556 L1.32632495,9.51383087 L2.93321863,9.51383087 C4.18302483,9.51383087 5.17776854,10.5085746 5.17776854,11.7583808 L5.17776854,13.9009057 Z M1.32632495,8.18750592 L1.32632495,1.58138744 L2.93321863,1.58138744 C4.18302483,1.58138744 5.17776854,2.57613115 5.17776854,3.82593735 L5.17776854,5.94295601 C5.17776854,7.19276221 4.18302483,8.18750592 2.93321863,8.18750592 L1.32632495,8.18750592 Z M13.1846052,0.25506249 L13.1846052,14.4110307 C13.1846052,15.5077994 12.2918865,16.4005181 11.1951178,16.4005181 C10.0983491,16.4005181 9.20563038,15.5077994 9.20563038,14.4110307 L9.20563038,0.25506249 L7.87930544,0.25506249 L7.87930544,14.4110307 C7.87930544,16.2474806 9.35866788,17.726843 11.1951178,17.726843 C13.0315677,17.726843 14.5109302,16.2474806 14.5109302,14.4110307 L14.5109302,0.25506249 L13.1846052,0.25506249 Z M17.5695546,16.1454556 L17.5695546,0.25506249 L16.2432296,0.25506249 L16.2432296,17.4717806 L21.7270731,17.4717806 L21.7270731,16.1454556 L17.5695546,16.1454556 Z M25.6274037,17.4717806 C27.5913849,17.4717806 29.1982786,15.8648869 29.1982786,13.9009057 L29.1982786,11.7583808 C29.1982786,10.5595871 28.5861286,9.51383087 27.6934099,8.8506684 C28.5861286,8.21301217 29.1982786,7.14174971 29.1982786,5.94295601 L29.1982786,3.82593735 C29.1982786,1.86195618 27.5913849,0.25506249 25.6274037,0.25506249 L22.6941851,0.25506249 L22.6941851,17.4717806 L25.6274037,17.4717806 Z M27.8719536,13.9009057 C27.8719536,15.1507119 26.8772099,16.1454556 25.6274037,16.1454556 L24.02051,16.1454556 L24.02051,9.51383087 L25.6274037,9.51383087 C26.8772099,9.51383087 27.8719536,10.5085746 27.8719536,11.7583808 L27.8719536,13.9009057 Z M24.02051,8.18750592 L24.02051,1.58138744 L25.6274037,1.58138744 C26.8772099,1.58138744 27.8719536,2.57613115 27.8719536,3.82593735 L27.8719536,5.94295601 C27.8719536,7.19276221 26.8772099,8.18750592 25.6274037,8.18750592 L24.02051,8.18750592 Z M34.4504404,0.25506249 L32.2058905,0.25506249 L29.5787468,17.4717806 L30.9050718,17.4717806 L31.5682342,13.0591995 L35.0625904,13.0591995 L35.7512591,17.4717806 L37.077584,17.4717806 L34.4504404,0.25506249 Z M33.3026592,1.73442493 L33.3536717,1.73442493 L34.8585404,11.7328745 L31.7722842,11.7328745 L33.3026592,1.73442493 Z M39.2434897,8.6466184 L39.2434897,1.58138744 L40.8503834,1.58138744 C42.1001896,1.58138744 43.0949333,2.57613115 43.0949333,3.82593735 L43.0949333,6.40206849 C43.0949333,7.65187469 42.1001896,8.6466184 40.8503834,8.6466184 L39.2434897,8.6466184 Z M40.8503834,9.97294335 C42.8143645,9.97294335 44.4212582,8.36604967 44.4212582,6.40206849 L44.4212582,3.82593735 C44.4212582,1.86195618 42.8143645,0.25506249 40.8503834,0.25506249 L37.9171647,0.25506249 L37.9171647,17.4717806 L39.2434897,17.4717806 L39.2434897,9.97294335 L40.8503834,9.97294335 Z M53.6481439,9.97294335 L55.6376313,9.97294335 L55.6376313,14.4110307 C55.6376313,15.5077994 54.7449126,16.4005181 53.6481439,16.4005181 C52.5513752,16.4005181 51.6586564,15.5077994 51.6586564,14.4110307 L51.6586564,3.31581237 C51.6586564,2.21904366 52.5513752,1.32632495 53.6481439,1.32632495 C54.7449126,1.32632495 55.6376313,2.21904366 55.6376313,3.31581237 L55.6376313,5.50934978 L56.9639562,5.35631229 L56.9639562,3.31581237 C56.9639562,1.47936244 55.4845938,0 53.6481439,0 C51.8116939,0 50.3323315,1.47936244 50.3323315,3.31581237 L50.3323315,14.4110307 C50.3323315,16.2474806 51.8116939,17.726843 53.6481439,17.726843 C54.4898501,17.726843 55.2550376,17.4207681 55.8416813,16.9106431 L55.8416813,17.4972868 L56.9639562,17.726843 L56.9639562,8.6466184 L53.6481439,8.6466184 L53.6481439,9.97294335 Z M64.9962992,11.7583808 C64.9962992,10.5595871 64.3841492,9.51383087 63.4914305,8.8506684 C64.3841492,8.21301217 64.9962992,7.14174971 64.9962992,5.94295601 L64.9962992,3.82593735 C64.9962992,1.86195618 63.3894055,0.25506249 61.4254243,0.25506249 L58.4922057,0.25506249 L58.4922057,17.4717806 L59.8185306,17.4717806 L59.8185306,9.51383087 L61.4254243,9.51383087 C62.6752305,9.51383087 63.6699742,10.5085746 63.6699742,11.7583808 L63.6699742,17.4717806 L64.9962992,17.4717806 L64.9962992,11.7583808 Z M59.8185306,8.18750592 L59.8185306,1.58138744 L61.4254243,1.58138744 C62.6752305,1.58138744 63.6699742,2.57613115 63.6699742,3.82593735 L63.6699742,5.94295601 C63.6699742,7.19276221 62.6752305,8.18750592 61.4254243,8.18750592 L59.8185306,8.18750592 Z M67.8253673,17.4717806 L67.8253673,0.25506249 L66.4990424,0.25506249 L66.4990424,17.4717806 L67.8253673,17.4717806 Z M70.9350042,16.1454556 L70.9350042,0.25506249 L69.6086792,0.25506249 L69.6086792,17.4717806 L75.0925228,17.4717806 L75.0925228,16.1454556 L70.9350042,16.1454556 Z M77.3859597,16.1454556 L77.3859597,0.25506249 L76.0596347,0.25506249 L76.0596347,17.4717806 L81.5434783,17.4717806 L81.5434783,16.1454556 L77.3859597,16.1454556 Z" id="BULBAP-GRILL"></path>
                </g>
            </g>
        </g>
    </g>
</svg>