<?xml version="1.0" encoding="UTF-8"?>
<svg width="3042px" height="2029px" viewBox="0 0 3042 2029" version="1.1" xmlns="http://www.w3.org/2000/svg" xmlns:xlink="http://www.w3.org/1999/xlink">
    <!-- Generator: Sketch 46.1 (44463) - http://www.bohemiancoding.com/sketch -->
    <title>Group 2</title>
    <desc>Created with Sketch.</desc>
    <defs></defs>
    <g id="Page-1" stroke="none" stroke-width="1" fill="none" fill-rule="evenodd">
        <g id="Group-2">
            <polygon id="Path-2-Copy" fill="#FFFFFF" transform="translate(1520.767122, 1014.214201) scale(-1, 1) translate(-1520.767122, -1014.214201) " points="0 1520.00369 0 0 3041.53424 0 3041.53424 1520.00369 922.123566 1520.00369 184.177715 2028.4284 299.90988 1520.00369"></polygon>
            <path d="M588.990723,894 L538.341309,894 L408.414551,687.198242 L408.414551,894 L357.765137,894 L357.765137,602.515625 L408.414551,602.515625 L538.741699,810.118164 L538.741699,602.515625 L588.990723,602.515625 L588.990723,894 Z M881.476074,755.865234 C881.476074,784.426575 876.537973,809.484104 866.661621,831.038574 C856.78527,852.593044 842.671641,869.142358 824.320312,880.687012 C805.968984,892.231666 784.84859,898.003906 760.958496,898.003906 C737.335331,898.003906 716.281668,892.231666 697.796875,880.687012 C679.312082,869.142358 665.031626,852.693141 654.955078,831.338867 C644.87853,809.984594 639.773601,785.360817 639.640137,757.466797 L639.640137,741.050781 C639.640137,712.622905 644.678335,687.53201 654.754883,665.777344 C664.831431,644.022678 679.045156,627.373267 697.396484,615.828613 C715.747813,604.283959 736.801476,598.511719 760.558105,598.511719 C784.314735,598.511719 805.368398,604.217228 823.719727,615.628418 C842.071055,627.039608 856.251415,643.455459 866.26123,664.876465 C876.271046,686.29747 881.34261,711.221538 881.476074,739.649414 L881.476074,755.865234 Z M830.82666,740.650391 C830.82666,708.352052 824.720764,683.594813 812.508789,666.37793 C800.296814,649.161047 782.980093,640.552734 760.558105,640.552734 C738.669975,640.552734 721.553447,649.127681 709.208008,666.277832 C696.862568,683.427983 690.556479,707.684739 690.289551,739.048828 L690.289551,755.865234 C690.289551,787.896645 696.528909,812.653884 709.007812,830.137695 C721.486716,847.621507 738.803437,856.363281 760.958496,856.363281 C783.380483,856.363281 800.630473,847.8217 812.708984,830.738281 C824.787495,813.654862 830.82666,788.69743 830.82666,755.865234 L830.82666,740.650391 Z M1160.54834,821.929688 L1205.39209,602.515625 L1255.64111,602.515625 L1188.37549,894 L1139.92822,894 L1084.47412,681.192383 L1027.81885,894 L979.171387,894 L911.905762,602.515625 L962.154785,602.515625 L1007.39893,821.529297 L1063.05322,602.515625 L1105.49463,602.515625 L1160.54834,821.929688 Z M1626.20264,894 L1575.75342,894 L1575.75342,764.473633 L1445.42627,764.473633 L1445.42627,894 L1394.77686,894 L1394.77686,602.515625 L1445.42627,602.515625 L1445.42627,723.833984 L1575.75342,723.833984 L1575.75342,602.515625 L1626.20264,602.515625 L1626.20264,894 Z M1739.51318,894 L1689.06396,894 L1689.06396,602.515625 L1739.51318,602.515625 L1739.51318,894 Z M1908.87842,781.69043 L1852.42334,781.69043 L1852.42334,894 L1801.77393,894 L1801.77393,602.515625 L1904.27393,602.515625 C1937.90691,602.515625 1963.86531,610.05624 1982.1499,625.137695 C2000.4345,640.219151 2009.57666,662.040222 2009.57666,690.601562 C2009.57666,710.087337 2004.87212,726.403092 1995.46289,739.549316 C1986.05366,752.695541 1972.941,762.805303 1956.12451,769.878906 L2021.58838,891.397461 L2021.58838,894 L1967.33545,894 L1908.87842,781.69043 Z M1852.42334,741.050781 L1904.47412,741.050781 C1921.55754,741.050781 1934.90376,736.746625 1944.51318,728.138184 C1954.12261,719.529742 1958.92725,707.751702 1958.92725,692.803711 C1958.92725,677.188398 1954.48963,665.110069 1945.61426,656.568359 C1936.73889,648.02665 1923.49276,643.622397 1905.87549,643.355469 L1852.42334,643.355469 L1852.42334,741.050781 Z M2111.07568,894 L2060.62646,894 L2060.62646,602.515625 L2111.07568,602.515625 L2111.07568,894 Z M2404.56201,894 L2353.9126,894 L2223.98584,687.198242 L2223.98584,894 L2173.33643,894 L2173.33643,602.515625 L2223.98584,602.515625 L2354.31299,810.118164 L2354.31299,602.515625 L2404.56201,602.515625 L2404.56201,894 Z M2687.83838,856.163086 C2677.29471,869.909899 2662.68059,880.319952 2643.99561,887.393555 C2625.31062,894.467158 2604.09013,898.003906 2580.3335,898.003906 C2555.90955,898.003906 2534.28867,892.465225 2515.47021,881.387695 C2496.65176,870.310166 2482.13775,854.461529 2471.92773,833.841309 C2461.71772,813.221088 2456.4126,789.164525 2456.01221,761.670898 L2456.01221,738.848633 C2456.01221,694.805444 2466.55572,660.40556 2487.64307,635.647949 C2508.73041,610.890338 2538.15883,598.511719 2575.9292,598.511719 C2608.361,598.511719 2634.11921,606.519451 2653.20459,622.535156 C2672.28997,638.550861 2683.76772,661.639823 2687.63818,691.802734 L2637.98975,691.802734 C2632.38425,656.701647 2612.03126,639.151367 2576.93018,639.151367 C2554.24126,639.151367 2536.99127,647.325927 2525.17969,663.675293 C2513.36811,680.024659 2507.26221,704.01449 2506.86182,735.645508 L2506.86182,758.067383 C2506.86182,789.564936 2513.50156,814.021886 2526.78125,831.438965 C2540.06094,848.856044 2558.51209,857.564453 2582.13525,857.564453 C2608.02731,857.564453 2626.4451,851.692116 2637.38916,839.947266 L2637.38916,782.891602 L2577.33057,782.891602 L2577.33057,744.454102 L2687.83838,744.454102 L2687.83838,856.163086 Z" id="NOW-HIRING" fill="#4C9F00"></path>
        </g>
    </g>
</svg>