<?xml version="1.0" encoding="UTF-8"?>
<svg width="51px" height="51px" viewBox="0 0 51 51" version="1.1" xmlns="http://www.w3.org/2000/svg" xmlns:xlink="http://www.w3.org/1999/xlink">
    <!-- Generator: Sketch 43.2 (39069) - http://www.bohemiancoding.com/sketch -->
    <title>spicy</title>
    <desc>Created with Sketch.</desc>
    <defs></defs>
    <g id="store-app" stroke="none" stroke-width="1" fill="none" fill-rule="evenodd">
        <g id="Artboard-2" transform="translate(-63.000000, 0.000000)">
            <g id="Group-36" transform="translate(63.000000, 0.000000)">
                <g id="spicy" transform="translate(0.666667, 0.181818)">
                    <circle id="Oval-3" fill="#D0011B" cx="25" cy="25" r="25"></circle>
                    <g id="196---Chilli-(Outline)" transform="translate(8.750000, 8.750000)" stroke="#FFFFFF">
                        <path d="M28.722025,0.5319875 C30.8175125,1.2985 30.166275,3.176025 28.9413125,4.450675" id="Stroke-282" stroke-linecap="round"></path>
                        <path d="M21.6114125,10.0083875 C21.52065,10.3171125 21.4312125,10.646375 21.3464125,11.0193625 C19.0276625,21.233125 10.4999625,26.6219 0.883775,31.947075 C0.443875,32.190875 0.3835875,32.9428125 0.8155375,32.8778875 C7.0119,31.9464125 23.1828625,33.5172 31.0931125,14.981775 C31.0931125,14.981775 35.1761,6.464675 29.9589125,5.0568625 C29.9589125,5.0568625 22.7456125,1.668175 21.6114125,10.0083875 L21.6114125,10.0083875 Z" id="Stroke-284"></path>
                        <path d="M32.33265,11.3241125 C32.8845125,8.8291375 32.8646375,5.8412625 29.9589125,5.0568625 C29.9589125,5.0568625 23.3836,1.9735875 21.8042,8.960975 C23.3431875,8.8450375 25.406875,8.5349875 25.9839125,7.7068625 C25.9839125,7.7068625 27.35065,9.0736 26.6464125,11.0193625 C26.6464125,11.0193625 29.54485,10.6881125 29.2964125,8.3693625 C29.2964125,8.3693625 31.0772125,9.901725 30.6214125,12.3443625 C30.6214125,12.3443625 31.480675,12.0846625 32.33265,11.3241125 L32.33265,11.3241125 Z" id="Stroke-286"></path>
                        <path d="M26.5404125,14.608125 C26.5404125,14.608125 25.0497875,24.876875 10.1435375,29.68" id="Stroke-288" stroke-linecap="round"></path>
                    </g>
                </g>
            </g>
        </g>
    </g>
</svg>