<?xml version="1.0" encoding="UTF-8"?>
<svg width="51px" height="50px" viewBox="0 0 51 50" version="1.1" xmlns="http://www.w3.org/2000/svg" xmlns:xlink="http://www.w3.org/1999/xlink">
    <!-- Generator: Sketch 43.2 (39069) - http://www.bohemiancoding.com/sketch -->
    <title>vegetarian</title>
    <desc>Created with Sketch.</desc>
    <defs></defs>
    <g id="store-app" stroke="none" stroke-width="1" fill="none" fill-rule="evenodd">
        <g id="Artboard-2" transform="translate(-127.000000, 0.000000)">
            <g id="Group-36" transform="translate(63.000000, 0.000000)">
                <g id="vegetarian" transform="translate(64.333333, 0.000000)">
                    <circle id="Oval-3-Copy-2" fill="#4C9F00" cx="25" cy="25" r="25"></circle>
                    <g id="183---Salad-(Outline)" transform="translate(9.375000, 7.500000)" stroke="#FFFFFF" stroke-linecap="round">
                        <path d="M24.865,16.976875 C25.834375,17.206875 26.89375,17.201875 28.02375,16.725625 C29.96625,15.905625 31.3475,14.0425 31.39125,11.935 C31.44,9.573125 29.941875,7.56 27.843125,6.82375 C27.695625,4.68 25.914375,2.98625 23.73375,2.98625 C23.7275,2.98625 23.72125,2.986875 23.715,2.986875 C23.75375,2.6625 23.731875,2.319375 23.626875,1.96125 C23.331875,0.955625 22.4475,0.183125 21.40625,0.059375 C20.5525,-0.041875 19.76875,0.264375 19.22,0.806875 C18.6975,0.335625 18.0125,0.040625 17.253125,0.040625 C15.62625,0.040625 14.3075,1.359375 14.3075,2.98625 C14.3075,2.99125 14.309375,2.995625 14.309375,3.000625 C12.331875,3.15125 10.773125,4.799375 10.773125,6.815 C10.773125,7.123125 10.813125,7.42125 10.881875,7.708125 C8.52875,7.80625 6.649375,9.74 6.649375,12.1175 C6.649375,12.923125 6.868125,13.675625 7.244375,14.32625 C6.52125,14.92 6.06,15.82125 6.06,16.830625 C6.06,18.24125 6.963125,19.438125 8.221875,19.8825 C8.059375,25.64375 10.115,29.041875 14.091875,33.62 C14.163125,33.7025 14.235625,33.784375 14.3075,33.86625 C14.323125,33.88375 14.33875,33.90125 14.354375,33.919375 C16.008125,35.775 19.738125,34.35375 18.935625,32.000625 C14.65125,19.4325 27.8575,21.24875 27.8575,21.24875 C27.8575,21.24875 28.235,17.446875 24.828125,17.26875 C24.833125,17.17375 24.836875,17.07875 24.84125,16.983125 C24.849375,16.981875 24.856875,16.97875 24.865,16.976875 L24.865,16.976875 Z" id="Stroke-156"></path>
                        <path d="M22.665625,11.933125 C22.665625,11.933125 20.304375,10.896875 17.140625,11.6175" id="Stroke-158"></path>
                        <path d="M12.945625,10.718125 C12.945625,10.718125 12.458125,13.77625 15.279375,15.045625" id="Stroke-160"></path>
                        <path d="M18.2475,18.450625 C18.2475,18.450625 15.210625,18.48625 14.188125,20.40125" id="Stroke-162"></path>
                        <path d="M12.061875,24.120625 C12.061875,24.120625 12.795625,25.51375 14.545625,25.885" id="Stroke-164"></path>
                        <path d="M21.4875,5.931875 C21.4875,5.931875 20.585625,7.11 20.788125,8.288125 C20.788125,8.288125 8.664375,14.333125 17.206875,34.658125" id="Stroke-166"></path>
                        <path d="M24.04625,8.693125 C24.04625,8.693125 22.205625,7.606875 20.788125,8.288125" id="Stroke-168"></path>
                        <path d="M14.354375,33.919375 C14.33875,33.90125 14.323125,33.88375 14.3075,33.86625 C14.235625,33.784375 14.163125,33.7025 14.091875,33.62 C10.115,29.041875 8.059375,25.64375 8.221875,19.8825 C6.963125,19.438125 6.06,18.24125 6.06,16.830625 C6.06,15.82125 6.52125,14.92 7.244375,14.32625 C6.868125,13.675625 6.649375,12.923125 6.649375,12.1175 C6.649375,9.74 8.52875,7.80625 10.881875,7.708125 C10.813125,7.42125 10.773125,7.123125 10.773125,6.815 C10.773125,5.21375 11.758125,3.8475 13.15375,3.276875 C13.060625,2.97375 12.943125,2.668125 12.78875,2.3625 C12.019375,0.836875 10.664375,-0.12125 9.4275,0.08 C8.408125,0.245625 7.695,1.0775 7.388125,2.19625 C6.53375,1.620625 5.585,1.396875 4.7275,1.69875 C2.890625,2.345625 2.31125,4.986875 3.363125,7.4325 C3.36625,7.44 3.370625,7.44625 3.37375,7.45375 C1.383125,8.405 0.853125,11.233125 2.115625,13.784375 C2.3,14.15625 2.514375,14.498125 2.748125,14.813125 C0.548125,15.7225 -0.0325,18.484375 1.3525,20.896875 C1.795625,21.66875 2.386875,22.30375 3.044375,22.7825 C2.73375,23.528125 2.80125,24.44375 3.295625,25.28875 C3.960625,26.423125 5.206875,27.0975 6.374375,27.089375 C8.42625,31.11875 10.94375,32.681875 14.755625,34.29875 C14.795625,34.315625 14.835625,34.3325 14.875625,34.349375 C14.68875,34.230625 14.51,34.09375 14.354375,33.919375 L14.354375,33.919375 Z" id="Stroke-170"></path>
                    </g>
                </g>
            </g>
        </g>
    </g>
</svg>