<?xml version="1.0" encoding="UTF-8"?>
<svg width="270px" height="110px" viewBox="0 0 270 110" version="1.1" xmlns="http://www.w3.org/2000/svg" xmlns:xlink="http://www.w3.org/1999/xlink">
    <!-- Generator: Sketch 43.1 (39012) - http://www.bohemiancoding.com/sketch -->
    <title>Inline-Logo</title>
    <desc>Created with Sketch.</desc>
    <defs></defs>
    <g id="Page-1" stroke="none" stroke-width="1" fill="none" fill-rule="evenodd">
        <g id="Inline-Logo" fill-rule="nonzero">
            <g id="Group-2">
                <circle id="Oval-2" fill="#4C9F00" cx="55" cy="55" r="55"></circle>
                <g id="Group" transform="translate(14.000000, 30.000000)" fill="#FFFFFF">
                    <g id="Group-6" transform="translate(0.000000, 21.043478)">
                        <g id="Group-Copy-4" transform="translate(0.000000, 0.104016)">
                            <polygon id="Rectangle-4-Copy-3" transform="translate(40.762094, 6.182887) scale(-1, 1) translate(-40.762094, -6.182887) " points="0 4.9164736 81.5241878 5.93635294 81.5157014 6.9582368 0 7.44930087"></polygon>
                            <polygon id="Rectangle-4-Copy-3" points="0 0 81.5241878 1.01987934 81.5157014 2.0417632 0 2.53282727"></polygon>
                            <rect id="Rectangle-3" x="21.0062324" y="22.4690776" width="39.5117229" height="10.0131845"></rect>
                            <path d="M40.771374,31.3096366 C62.0381446,31.3096366 81.542748,21.8297389 81.542748,9.952597 C35.4610761,9.95924745 38.1082879,9.99740006 0,9.952597 C0,21.8297389 19.5046034,31.3096366 40.771374,31.3096366 Z" id="Oval"></path>
                        </g>
                    </g>
                    <path d="M2.93321863,17.4717806 C4.8971998,17.4717806 6.50409349,15.8648869 6.50409349,13.9009057 L6.50409349,11.7583808 C6.50409349,10.5595871 5.89194351,9.51383087 4.9992248,8.8506684 C5.89194351,8.21301217 6.50409349,7.14174971 6.50409349,5.94295601 L6.50409349,3.82593735 C6.50409349,1.86195618 4.8971998,0.25506249 2.93321863,0.25506249 L0,0.25506249 L0,17.4717806 L2.93321863,17.4717806 Z M5.17776854,13.9009057 C5.17776854,15.1507119 4.18302483,16.1454556 2.93321863,16.1454556 L1.32632495,16.1454556 L1.32632495,9.51383087 L2.93321863,9.51383087 C4.18302483,9.51383087 5.17776854,10.5085746 5.17776854,11.7583808 L5.17776854,13.9009057 Z M1.32632495,8.18750592 L1.32632495,1.58138744 L2.93321863,1.58138744 C4.18302483,1.58138744 5.17776854,2.57613115 5.17776854,3.82593735 L5.17776854,5.94295601 C5.17776854,7.19276221 4.18302483,8.18750592 2.93321863,8.18750592 L1.32632495,8.18750592 Z M13.1846052,0.25506249 L13.1846052,14.4110307 C13.1846052,15.5077994 12.2918865,16.4005181 11.1951178,16.4005181 C10.0983491,16.4005181 9.20563038,15.5077994 9.20563038,14.4110307 L9.20563038,0.25506249 L7.87930544,0.25506249 L7.87930544,14.4110307 C7.87930544,16.2474806 9.35866788,17.726843 11.1951178,17.726843 C13.0315677,17.726843 14.5109302,16.2474806 14.5109302,14.4110307 L14.5109302,0.25506249 L13.1846052,0.25506249 Z M17.5695546,16.1454556 L17.5695546,0.25506249 L16.2432296,0.25506249 L16.2432296,17.4717806 L21.7270731,17.4717806 L21.7270731,16.1454556 L17.5695546,16.1454556 Z M25.6274037,17.4717806 C27.5913849,17.4717806 29.1982786,15.8648869 29.1982786,13.9009057 L29.1982786,11.7583808 C29.1982786,10.5595871 28.5861286,9.51383087 27.6934099,8.8506684 C28.5861286,8.21301217 29.1982786,7.14174971 29.1982786,5.94295601 L29.1982786,3.82593735 C29.1982786,1.86195618 27.5913849,0.25506249 25.6274037,0.25506249 L22.6941851,0.25506249 L22.6941851,17.4717806 L25.6274037,17.4717806 Z M27.8719536,13.9009057 C27.8719536,15.1507119 26.8772099,16.1454556 25.6274037,16.1454556 L24.02051,16.1454556 L24.02051,9.51383087 L25.6274037,9.51383087 C26.8772099,9.51383087 27.8719536,10.5085746 27.8719536,11.7583808 L27.8719536,13.9009057 Z M24.02051,8.18750592 L24.02051,1.58138744 L25.6274037,1.58138744 C26.8772099,1.58138744 27.8719536,2.57613115 27.8719536,3.82593735 L27.8719536,5.94295601 C27.8719536,7.19276221 26.8772099,8.18750592 25.6274037,8.18750592 L24.02051,8.18750592 Z M34.4504404,0.25506249 L32.2058905,0.25506249 L29.5787468,17.4717806 L30.9050718,17.4717806 L31.5682342,13.0591995 L35.0625904,13.0591995 L35.7512591,17.4717806 L37.077584,17.4717806 L34.4504404,0.25506249 Z M33.3026592,1.73442493 L33.3536717,1.73442493 L34.8585404,11.7328745 L31.7722842,11.7328745 L33.3026592,1.73442493 Z M39.2434897,8.6466184 L39.2434897,1.58138744 L40.8503834,1.58138744 C42.1001896,1.58138744 43.0949333,2.57613115 43.0949333,3.82593735 L43.0949333,6.40206849 C43.0949333,7.65187469 42.1001896,8.6466184 40.8503834,8.6466184 L39.2434897,8.6466184 Z M40.8503834,9.97294335 C42.8143645,9.97294335 44.4212582,8.36604967 44.4212582,6.40206849 L44.4212582,3.82593735 C44.4212582,1.86195618 42.8143645,0.25506249 40.8503834,0.25506249 L37.9171647,0.25506249 L37.9171647,17.4717806 L39.2434897,17.4717806 L39.2434897,9.97294335 L40.8503834,9.97294335 Z M53.6481439,9.97294335 L55.6376313,9.97294335 L55.6376313,14.4110307 C55.6376313,15.5077994 54.7449126,16.4005181 53.6481439,16.4005181 C52.5513752,16.4005181 51.6586564,15.5077994 51.6586564,14.4110307 L51.6586564,3.31581237 C51.6586564,2.21904366 52.5513752,1.32632495 53.6481439,1.32632495 C54.7449126,1.32632495 55.6376313,2.21904366 55.6376313,3.31581237 L55.6376313,5.50934978 L56.9639562,5.35631229 L56.9639562,3.31581237 C56.9639562,1.47936244 55.4845938,0 53.6481439,0 C51.8116939,0 50.3323315,1.47936244 50.3323315,3.31581237 L50.3323315,14.4110307 C50.3323315,16.2474806 51.8116939,17.726843 53.6481439,17.726843 C54.4898501,17.726843 55.2550376,17.4207681 55.8416813,16.9106431 L55.8416813,17.4972868 L56.9639562,17.726843 L56.9639562,8.6466184 L53.6481439,8.6466184 L53.6481439,9.97294335 Z M64.9962992,11.7583808 C64.9962992,10.5595871 64.3841492,9.51383087 63.4914305,8.8506684 C64.3841492,8.21301217 64.9962992,7.14174971 64.9962992,5.94295601 L64.9962992,3.82593735 C64.9962992,1.86195618 63.3894055,0.25506249 61.4254243,0.25506249 L58.4922057,0.25506249 L58.4922057,17.4717806 L59.8185306,17.4717806 L59.8185306,9.51383087 L61.4254243,9.51383087 C62.6752305,9.51383087 63.6699742,10.5085746 63.6699742,11.7583808 L63.6699742,17.4717806 L64.9962992,17.4717806 L64.9962992,11.7583808 Z M59.8185306,8.18750592 L59.8185306,1.58138744 L61.4254243,1.58138744 C62.6752305,1.58138744 63.6699742,2.57613115 63.6699742,3.82593735 L63.6699742,5.94295601 C63.6699742,7.19276221 62.6752305,8.18750592 61.4254243,8.18750592 L59.8185306,8.18750592 Z M67.8253673,17.4717806 L67.8253673,0.25506249 L66.4990424,0.25506249 L66.4990424,17.4717806 L67.8253673,17.4717806 Z M70.9350042,16.1454556 L70.9350042,0.25506249 L69.6086792,0.25506249 L69.6086792,17.4717806 L75.0925228,17.4717806 L75.0925228,16.1454556 L70.9350042,16.1454556 Z M77.3859597,16.1454556 L77.3859597,0.25506249 L76.0596347,0.25506249 L76.0596347,17.4717806 L81.5434783,17.4717806 L81.5434783,16.1454556 L77.3859597,16.1454556 Z" id="BULBAP-GRILL"></path>
                </g>
            </g>
            <path d="M125.395684,71.1395056 C129.008446,71.1395056 131.964341,68.1836095 131.964341,64.5708476 L131.964341,60.6296528 C131.964341,58.4244604 130.838286,56.5007819 129.196121,55.2808883 C130.838286,54.1079136 131.964341,52.1373162 131.964341,49.9321238 L131.964341,46.037848 C131.964341,42.4250861 129.008446,39.4691899 125.395684,39.4691899 L120,39.4691899 L120,71.1395056 L125.395684,71.1395056 Z M129.524555,64.5708476 C129.524555,66.8698779 127.694714,68.6997184 125.395684,68.6997184 L122.439788,68.6997184 L122.439788,56.5007819 L125.395684,56.5007819 C127.694714,56.5007819 129.524555,58.3306224 129.524555,60.6296528 L129.524555,64.5708476 Z M122.439788,54.0609946 L122.439788,41.9089772 L125.395684,41.9089772 C127.694714,41.9089772 129.524555,43.7388176 129.524555,46.037848 L129.524555,49.9321238 C129.524555,52.2311542 127.694714,54.0609946 125.395684,54.0609946 L122.439788,54.0609946 Z M144.253206,39.4691899 L144.253206,65.5092273 C144.253206,67.5267437 142.611041,69.1689083 140.593525,69.1689083 C138.576009,69.1689083 136.933844,67.5267437 136.933844,65.5092273 L136.933844,39.4691899 L134.494057,39.4691899 L134.494057,65.5092273 C134.494057,68.8873943 137.215358,71.6086955 140.593525,71.6086955 C143.971692,71.6086955 146.692994,68.8873943 146.692994,65.5092273 L146.692994,39.4691899 L144.253206,39.4691899 Z M152.319361,68.6997184 L152.319361,39.4691899 L149.879575,39.4691899 L149.879575,71.1395056 L159.967156,71.1395056 L159.967156,68.6997184 L152.319361,68.6997184 Z M167.141852,71.1395056 C170.754614,71.1395056 173.71051,68.1836095 173.71051,64.5708476 L173.71051,60.6296528 C173.71051,58.4244604 172.584454,56.5007819 170.94229,55.2808883 C172.584454,54.1079136 173.71051,52.1373162 173.71051,49.9321238 L173.71051,46.037848 C173.71051,42.4250861 170.754614,39.4691899 167.141852,39.4691899 L161.746169,39.4691899 L161.746169,71.1395056 L167.141852,71.1395056 Z M171.270723,64.5708476 C171.270723,66.8698779 169.440882,68.6997184 167.141852,68.6997184 L164.185956,68.6997184 L164.185956,56.5007819 L167.141852,56.5007819 C169.440882,56.5007819 171.270723,58.3306224 171.270723,60.6296528 L171.270723,64.5708476 Z M164.185956,54.0609946 L164.185956,41.9089772 L167.141852,41.9089772 C169.440882,41.9089772 171.270723,43.7388176 171.270723,46.037848 L171.270723,49.9321238 C171.270723,52.2311542 169.440882,54.0609946 167.141852,54.0609946 L164.185956,54.0609946 Z M183.371912,39.4691899 L179.243041,39.4691899 L174.410384,71.1395056 L176.850172,71.1395056 L178.070066,63.0225211 L184.497967,63.0225211 L185.764779,71.1395056 L188.204567,71.1395056 L183.371912,39.4691899 Z M181.260557,42.1904911 L181.354394,42.1904911 L184.122615,60.5827337 L178.445418,60.5827337 L181.260557,42.1904911 Z M192.188771,54.9055364 L192.188771,41.9089772 L195.144667,41.9089772 C197.443697,41.9089772 199.273537,43.7388176 199.273537,46.037848 L199.273537,50.7766656 C199.273537,53.0756959 197.443697,54.9055364 195.144667,54.9055364 L192.188771,54.9055364 Z M195.144667,57.3453237 C198.757429,57.3453237 201.713325,54.3894275 201.713325,50.7766656 L201.713325,46.037848 C201.713325,42.4250861 198.757429,39.4691899 195.144667,39.4691899 L189.748984,39.4691899 L189.748984,71.1395056 L192.18877,71.1395056 L192.18877,57.3453237 L195.144667,57.3453237 Z M218.686268,57.3453237 L222.34595,57.3453237 L222.34595,65.5092273 C222.34595,67.5267437 220.703785,69.1689083 218.686268,69.1689083 C216.668752,69.1689083 215.026587,67.5267437 215.026587,65.5092273 L215.026587,45.0994682 C215.026587,43.0819518 216.668752,41.4397873 218.686268,41.4397873 C220.703785,41.4397873 222.34595,43.0819518 222.34595,45.0994682 L222.34595,49.1345011 L224.785736,48.8529872 L224.785736,45.0994682 C224.785736,41.7213012 222.064436,39 218.686268,39 C215.308101,39 212.5868,41.7213012 212.5868,45.0994682 L212.5868,65.5092273 C212.5868,68.8873943 215.308101,71.6086955 218.686268,71.6086955 C220.234595,71.6086955 221.642165,71.0456677 222.721301,70.107288 L222.721301,71.1864247 L224.785736,71.6086955 L224.785736,54.9055364 L218.686268,54.9055364 L218.686268,57.3453237 Z M239.561307,60.6296528 C239.561307,58.4244604 238.435252,56.5007819 236.793087,55.2808883 C238.435252,54.1079136 239.561307,52.1373162 239.561307,49.9321238 L239.561307,46.037848 C239.561307,42.4250861 236.605412,39.4691899 232.99265,39.4691899 L227.596966,39.4691899 L227.596966,71.1395056 L230.036753,71.1395056 L230.036753,56.5007819 L232.99265,56.5007819 C235.291679,56.5007819 237.12152,58.3306224 237.12152,60.6296528 L237.12152,71.1395056 L239.561307,71.1395056 L239.561307,60.6296528 Z M230.036753,54.0609946 L230.036753,41.9089772 L232.99265,41.9089772 C235.291679,41.9089772 237.12152,43.7388176 237.12152,46.037848 L237.12152,49.9321238 C237.12152,52.2311542 235.291679,54.0609946 232.99265,54.0609946 L230.036753,54.0609946 Z M244.765406,71.1395056 L244.765406,39.4691899 L242.325618,39.4691899 L242.325618,71.1395056 L244.765406,71.1395056 Z M250.485611,68.6997184 L250.485611,39.4691899 L248.045825,39.4691899 L248.045825,71.1395056 L258.133406,71.1395056 L258.133406,68.6997184 L250.485611,68.6997184 Z M262.352205,68.6997184 L262.352205,39.4691899 L259.912418,39.4691899 L259.912418,71.1395056 L270,71.1395056 L270,68.6997184 L262.352205,68.6997184 Z" id="BULBAP-GRILL" fill="#4A4A4A"></path>
        </g>
    </g>
</svg>