<?xml version="1.0" encoding="UTF-8"?>
<svg width="296px" height="54px" viewBox="0 0 296 54" version="1.1" xmlns="http://www.w3.org/2000/svg" xmlns:xlink="http://www.w3.org/1999/xlink">
    <!-- Generator: Sketch 43.1 (39012) - http://www.bohemiancoding.com/sketch -->
    <title>Inline-Logo-o</title>
    <desc>Created with Sketch.</desc>
    <defs></defs>
    <g id="Page-1" stroke="none" stroke-width="1" fill="none" fill-rule="evenodd">
        <g id="Inline-Logo-o" fill-rule="nonzero">
            <g id="Group-2" fill="#4C9F00">
                <g id="Group">
                    <g id="Group-6" transform="translate(0.000000, 21.043478)">
                        <g id="Group-Copy-4" transform="translate(0.000000, 0.104016)">
                            <polygon id="Rectangle-4-Copy-3" transform="translate(40.762094, 6.182887) scale(-1, 1) translate(-40.762094, -6.182887) " points="0 4.9164736 81.5241878 5.93635294 81.5157014 6.9582368 0 7.44930087"></polygon>
                            <polygon id="Rectangle-4-Copy-3" points="0 0 81.5241878 1.01987934 81.5157014 2.0417632 0 2.53282727"></polygon>
                            <rect id="Rectangle-3" x="21.0062324" y="22.4690776" width="39.5117229" height="10.0131845"></rect>
                            <path d="M40.771374,31.3096366 C62.0381446,31.3096366 81.542748,21.8297389 81.542748,9.952597 C35.4610761,9.95924745 38.1082879,9.99740006 0,9.952597 C0,21.8297389 19.5046034,31.3096366 40.771374,31.3096366 Z" id="Oval"></path>
                        </g>
                    </g>
                    <path d="M2.93321863,17.4717806 C4.8971998,17.4717806 6.50409349,15.8648869 6.50409349,13.9009057 L6.50409349,11.7583808 C6.50409349,10.5595871 5.89194351,9.51383087 4.9992248,8.8506684 C5.89194351,8.21301217 6.50409349,7.14174971 6.50409349,5.94295601 L6.50409349,3.82593735 C6.50409349,1.86195618 4.8971998,0.25506249 2.93321863,0.25506249 L0,0.25506249 L0,17.4717806 L2.93321863,17.4717806 Z M5.17776854,13.9009057 C5.17776854,15.1507119 4.18302483,16.1454556 2.93321863,16.1454556 L1.32632495,16.1454556 L1.32632495,9.51383087 L2.93321863,9.51383087 C4.18302483,9.51383087 5.17776854,10.5085746 5.17776854,11.7583808 L5.17776854,13.9009057 Z M1.32632495,8.18750592 L1.32632495,1.58138744 L2.93321863,1.58138744 C4.18302483,1.58138744 5.17776854,2.57613115 5.17776854,3.82593735 L5.17776854,5.94295601 C5.17776854,7.19276221 4.18302483,8.18750592 2.93321863,8.18750592 L1.32632495,8.18750592 Z M13.1846052,0.25506249 L13.1846052,14.4110307 C13.1846052,15.5077994 12.2918865,16.4005181 11.1951178,16.4005181 C10.0983491,16.4005181 9.20563038,15.5077994 9.20563038,14.4110307 L9.20563038,0.25506249 L7.87930544,0.25506249 L7.87930544,14.4110307 C7.87930544,16.2474806 9.35866788,17.726843 11.1951178,17.726843 C13.0315677,17.726843 14.5109302,16.2474806 14.5109302,14.4110307 L14.5109302,0.25506249 L13.1846052,0.25506249 Z M17.5695546,16.1454556 L17.5695546,0.25506249 L16.2432296,0.25506249 L16.2432296,17.4717806 L21.7270731,17.4717806 L21.7270731,16.1454556 L17.5695546,16.1454556 Z M25.6274037,17.4717806 C27.5913849,17.4717806 29.1982786,15.8648869 29.1982786,13.9009057 L29.1982786,11.7583808 C29.1982786,10.5595871 28.5861286,9.51383087 27.6934099,8.8506684 C28.5861286,8.21301217 29.1982786,7.14174971 29.1982786,5.94295601 L29.1982786,3.82593735 C29.1982786,1.86195618 27.5913849,0.25506249 25.6274037,0.25506249 L22.6941851,0.25506249 L22.6941851,17.4717806 L25.6274037,17.4717806 Z M27.8719536,13.9009057 C27.8719536,15.1507119 26.8772099,16.1454556 25.6274037,16.1454556 L24.02051,16.1454556 L24.02051,9.51383087 L25.6274037,9.51383087 C26.8772099,9.51383087 27.8719536,10.5085746 27.8719536,11.7583808 L27.8719536,13.9009057 Z M24.02051,8.18750592 L24.02051,1.58138744 L25.6274037,1.58138744 C26.8772099,1.58138744 27.8719536,2.57613115 27.8719536,3.82593735 L27.8719536,5.94295601 C27.8719536,7.19276221 26.8772099,8.18750592 25.6274037,8.18750592 L24.02051,8.18750592 Z M34.4504404,0.25506249 L32.2058905,0.25506249 L29.5787468,17.4717806 L30.9050718,17.4717806 L31.5682342,13.0591995 L35.0625904,13.0591995 L35.7512591,17.4717806 L37.077584,17.4717806 L34.4504404,0.25506249 Z M33.3026592,1.73442493 L33.3536717,1.73442493 L34.8585404,11.7328745 L31.7722842,11.7328745 L33.3026592,1.73442493 Z M39.2434897,8.6466184 L39.2434897,1.58138744 L40.8503834,1.58138744 C42.1001896,1.58138744 43.0949333,2.57613115 43.0949333,3.82593735 L43.0949333,6.40206849 C43.0949333,7.65187469 42.1001896,8.6466184 40.8503834,8.6466184 L39.2434897,8.6466184 Z M40.8503834,9.97294335 C42.8143645,9.97294335 44.4212582,8.36604967 44.4212582,6.40206849 L44.4212582,3.82593735 C44.4212582,1.86195618 42.8143645,0.25506249 40.8503834,0.25506249 L37.9171647,0.25506249 L37.9171647,17.4717806 L39.2434897,17.4717806 L39.2434897,9.97294335 L40.8503834,9.97294335 Z M53.6481439,9.97294335 L55.6376313,9.97294335 L55.6376313,14.4110307 C55.6376313,15.5077994 54.7449126,16.4005181 53.6481439,16.4005181 C52.5513752,16.4005181 51.6586564,15.5077994 51.6586564,14.4110307 L51.6586564,3.31581237 C51.6586564,2.21904366 52.5513752,1.32632495 53.6481439,1.32632495 C54.7449126,1.32632495 55.6376313,2.21904366 55.6376313,3.31581237 L55.6376313,5.50934978 L56.9639562,5.35631229 L56.9639562,3.31581237 C56.9639562,1.47936244 55.4845938,0 53.6481439,0 C51.8116939,0 50.3323315,1.47936244 50.3323315,3.31581237 L50.3323315,14.4110307 C50.3323315,16.2474806 51.8116939,17.726843 53.6481439,17.726843 C54.4898501,17.726843 55.2550376,17.4207681 55.8416813,16.9106431 L55.8416813,17.4972868 L56.9639562,17.726843 L56.9639562,8.6466184 L53.6481439,8.6466184 L53.6481439,9.97294335 Z M64.9962992,11.7583808 C64.9962992,10.5595871 64.3841492,9.51383087 63.4914305,8.8506684 C64.3841492,8.21301217 64.9962992,7.14174971 64.9962992,5.94295601 L64.9962992,3.82593735 C64.9962992,1.86195618 63.3894055,0.25506249 61.4254243,0.25506249 L58.4922057,0.25506249 L58.4922057,17.4717806 L59.8185306,17.4717806 L59.8185306,9.51383087 L61.4254243,9.51383087 C62.6752305,9.51383087 63.6699742,10.5085746 63.6699742,11.7583808 L63.6699742,17.4717806 L64.9962992,17.4717806 L64.9962992,11.7583808 Z M59.8185306,8.18750592 L59.8185306,1.58138744 L61.4254243,1.58138744 C62.6752305,1.58138744 63.6699742,2.57613115 63.6699742,3.82593735 L63.6699742,5.94295601 C63.6699742,7.19276221 62.6752305,8.18750592 61.4254243,8.18750592 L59.8185306,8.18750592 Z M67.8253673,17.4717806 L67.8253673,0.25506249 L66.4990424,0.25506249 L66.4990424,17.4717806 L67.8253673,17.4717806 Z M70.9350042,16.1454556 L70.9350042,0.25506249 L69.6086792,0.25506249 L69.6086792,17.4717806 L75.0925228,17.4717806 L75.0925228,16.1454556 L70.9350042,16.1454556 Z M77.3859597,16.1454556 L77.3859597,0.25506249 L76.0596347,0.25506249 L76.0596347,17.4717806 L81.5434783,17.4717806 L81.5434783,16.1454556 L77.3859597,16.1454556 Z" id="BULBAP-GRILL"></path>
                </g>
            </g>
            <path d="M103.194245,45.8526742 C108.011261,45.8526742 111.952455,41.9114794 111.952455,37.0944635 L111.952455,31.839537 C111.952455,28.8992805 110.451048,26.3343759 108.261495,24.7078511 C110.451048,23.1438848 111.952455,20.5164216 111.952455,17.5761651 L111.952455,12.3837973 C111.952455,7.5667814 108.011261,3.6255865 103.194245,3.6255865 L96,3.6255865 L96,45.8526742 L103.194245,45.8526742 Z M108.699406,37.0944635 C108.699406,40.1598372 106.259618,42.5996245 103.194245,42.5996245 L99.25305,42.5996245 L99.25305,26.3343759 L103.194245,26.3343759 C106.259618,26.3343759 108.699406,28.7741632 108.699406,31.839537 L108.699406,37.0944635 Z M99.25305,23.0813262 L99.25305,6.8786362 L103.194245,6.8786362 C106.259618,6.8786362 108.699406,9.3184235 108.699406,12.3837973 L108.699406,17.5761651 C108.699406,20.6415389 106.259618,23.0813262 103.194245,23.0813262 L99.25305,23.0813262 Z M128.337608,3.6255865 L128.337608,38.3456364 C128.337608,41.0356583 126.148055,43.225211 123.458034,43.225211 C120.768012,43.225211 118.578459,41.0356583 118.578459,38.3456364 L118.578459,3.6255865 L115.325409,3.6255865 L115.325409,38.3456364 C115.325409,42.8498591 118.953811,46.4782607 123.458034,46.4782607 C127.962256,46.4782607 131.590658,42.8498591 131.590658,38.3456364 L131.590658,3.6255865 L128.337608,3.6255865 Z M139.092482,42.5996245 L139.092482,3.6255865 L135.839433,3.6255865 L135.839433,45.8526742 L149.289542,45.8526742 L149.289542,42.5996245 L139.092482,42.5996245 Z M158.855802,45.8526742 C163.672818,45.8526742 167.614013,41.9114794 167.614013,37.0944635 L167.614013,31.839537 C167.614013,28.8992805 166.112605,26.3343759 163.923053,24.7078511 C166.112605,23.1438848 167.614013,20.5164216 167.614013,17.5761651 L167.614013,12.3837973 C167.614013,7.5667814 163.672818,3.6255865 158.855802,3.6255865 L151.661558,3.6255865 L151.661558,45.8526742 L158.855802,45.8526742 Z M164.360964,37.0944635 C164.360964,40.1598372 161.921176,42.5996245 158.855802,42.5996245 L154.914608,42.5996245 L154.914608,26.3343759 L158.855802,26.3343759 C161.921176,26.3343759 164.360964,28.7741632 164.360964,31.839537 L164.360964,37.0944635 Z M154.914608,23.0813262 L154.914608,6.8786362 L158.855802,6.8786362 C161.921176,6.8786362 164.360964,9.3184235 164.360964,12.3837973 L164.360964,17.5761651 C164.360964,20.6415389 161.921176,23.0813262 158.855802,23.0813262 L154.914608,23.0813262 Z M180.495882,3.6255865 L174.990721,3.6255865 L168.547179,45.8526742 L171.800229,45.8526742 L173.426754,35.0300281 L181.997289,35.0300281 L183.686372,45.8526742 L186.939422,45.8526742 L180.495882,3.6255865 Z M177.680742,7.2539881 L177.805859,7.2539881 L181.49682,31.7769783 L173.927224,31.7769783 L177.680742,7.2539881 Z M192.251694,24.2073818 L192.251694,6.8786362 L196.192889,6.8786362 C199.258263,6.8786362 201.69805,9.3184235 201.69805,12.3837973 L201.69805,18.7022208 C201.69805,21.7675945 199.258263,24.2073818 196.192889,24.2073818 L192.251694,24.2073818 Z M196.192889,27.4604316 C201.009905,27.4604316 204.9511,23.5192367 204.9511,18.7022208 L204.9511,12.3837973 C204.9511,7.5667814 201.009905,3.6255865 196.192889,3.6255865 L188.998645,3.6255865 L188.998645,45.8526742 L192.251694,45.8526742 L192.251694,27.4604316 L196.192889,27.4604316 Z M227.581691,27.4604316 L232.461266,27.4604316 L232.461266,38.3456364 C232.461266,41.0356583 230.271713,43.225211 227.581691,43.225211 C224.891669,43.225211 222.702116,41.0356583 222.702116,38.3456364 L222.702116,11.1326243 C222.702116,8.4426024 224.891669,6.2530497 227.581691,6.2530497 C230.271713,6.2530497 232.461266,8.4426024 232.461266,11.1326243 L232.461266,16.5126681 L235.714315,16.1373162 L235.714315,11.1326243 C235.714315,6.6284016 232.085914,3 227.581691,3 C223.077468,3 219.449067,6.6284016 219.449067,11.1326243 L219.449067,38.3456364 C219.449067,42.8498591 223.077468,46.4782607 227.581691,46.4782607 C229.646126,46.4782607 231.522886,45.7275569 232.961735,44.476384 L232.961735,45.9152329 L235.714315,46.4782607 L235.714315,24.2073818 L227.581691,24.2073818 L227.581691,27.4604316 Z M255.415076,31.839537 C255.415076,28.8992805 253.913669,26.3343759 251.724116,24.7078511 C253.913669,23.1438848 255.415076,20.5164216 255.415076,17.5761651 L255.415076,12.3837973 C255.415076,7.5667814 251.473882,3.6255865 246.656866,3.6255865 L239.462621,3.6255865 L239.462621,45.8526742 L242.715671,45.8526742 L242.715671,26.3343759 L246.656866,26.3343759 C249.722239,26.3343759 252.162027,28.7741632 252.162027,31.839537 L252.162027,45.8526742 L255.415076,45.8526742 L255.415076,31.839537 Z M242.715671,23.0813262 L242.715671,6.8786362 L246.656866,6.8786362 C249.722239,6.8786362 252.162027,9.3184235 252.162027,12.3837973 L252.162027,17.5761651 C252.162027,20.6415389 249.722239,23.0813262 246.656866,23.0813262 L242.715671,23.0813262 Z M262.353874,45.8526742 L262.353874,3.6255865 L259.100824,3.6255865 L259.100824,45.8526742 L262.353874,45.8526742 Z M269.980815,42.5996245 L269.980815,3.6255865 L266.727766,3.6255865 L266.727766,45.8526742 L280.177875,45.8526742 L280.177875,42.5996245 L269.980815,42.5996245 Z M285.80294,42.5996245 L285.80294,3.6255865 L282.549891,3.6255865 L282.549891,45.8526742 L296,45.8526742 L296,42.5996245 L285.80294,42.5996245 Z" id="BULBAP-GRILL" fill="#4A4A4A"></path>
        </g>
    </g>
</svg>