<?xml version="1.0" encoding="UTF-8"?>
<svg width="463px" height="116px" viewBox="0 0 463 116" version="1.1" xmlns="http://www.w3.org/2000/svg" xmlns:xlink="http://www.w3.org/1999/xlink">
    <!-- Generator: Sketch 43.1 (39012) - http://www.bohemiancoding.com/sketch -->
    <title>Inline-Logo</title>
    <desc>Created with Sketch.</desc>
    <defs>
        <circle id="path-1" cx="55" cy="55" r="55"></circle>
    </defs>
    <g id="Page-1" stroke="none" stroke-width="1" fill="none" fill-rule="evenodd">
        <g id="Inline-Logo" transform="translate(3.000000, 3.000000)" fill-rule="nonzero">
            <path d="M132.230216,90.8495462 C140.419143,90.8495462 147.119174,84.149515 147.119174,75.9605879 L147.119174,67.0272129 C147.119174,62.0287768 144.566781,57.668439 140.844542,54.9033468 C144.566781,52.2446042 147.119174,47.7779167 147.119174,42.7794807 L147.119174,33.9524554 C147.119174,25.7635283 140.419143,19.063497 132.230216,19.063497 L120,19.063497 L120,90.8495462 L132.230216,90.8495462 Z M141.58899,75.9605879 C141.58899,81.1717233 137.441351,85.3193617 132.230216,85.3193617 L125.530185,85.3193617 L125.530185,57.668439 L132.230216,57.668439 C137.441351,57.668439 141.58899,61.8160774 141.58899,67.0272129 L141.58899,75.9605879 Z M125.530185,52.1382545 L125.530185,24.5936816 L132.230216,24.5936816 C137.441351,24.5936816 141.58899,28.74132 141.58899,33.9524554 L141.58899,42.7794807 C141.58899,47.9906161 137.441351,52.1382545 132.230216,52.1382545 L125.530185,52.1382545 Z M174.973934,19.063497 L174.973934,78.0875819 C174.973934,82.6606191 171.251694,86.3828587 166.678657,86.3828587 C162.10562,86.3828587 158.38338,82.6606191 158.38338,78.0875819 L158.38338,19.063497 L152.853196,19.063497 L152.853196,78.0875819 C152.853196,85.7447605 159.021478,91.9130432 166.678657,91.9130432 C174.335836,91.9130432 180.504118,85.7447605 180.504118,78.0875819 L180.504118,19.063497 L174.973934,19.063497 Z M193.25722,85.3193617 L193.25722,19.063497 L187.727036,19.063497 L187.727036,90.8495462 L210.592222,90.8495462 L210.592222,85.3193617 L193.25722,85.3193617 Z M226.854864,90.8495462 C235.043791,90.8495462 241.743822,84.149515 241.743822,75.9605879 L241.743822,67.0272129 C241.743822,62.0287768 239.191429,57.668439 235.46919,54.9033468 C239.191429,52.2446042 241.743822,47.7779167 241.743822,42.7794807 L241.743822,33.9524554 C241.743822,25.7635283 235.043791,19.063497 226.854864,19.063497 L214.624648,19.063497 L214.624648,90.8495462 L226.854864,90.8495462 Z M236.213638,75.9605879 C236.213638,81.1717233 232.065999,85.3193617 226.854864,85.3193617 L220.154833,85.3193617 L220.154833,57.668439 L226.854864,57.668439 C232.065999,57.668439 236.213638,61.8160774 236.213638,67.0272129 L236.213638,75.9605879 Z M220.154833,52.1382545 L220.154833,24.5936816 L226.854864,24.5936816 C232.065999,24.5936816 236.213638,28.74132 236.213638,33.9524554 L236.213638,42.7794807 C236.213638,47.9906161 232.065999,52.1382545 226.854864,52.1382545 L220.154833,52.1382545 Z M263.642999,19.063497 L254.284225,19.063497 L243.330205,90.8495462 L248.86039,90.8495462 L251.625482,72.4510477 L266.195391,72.4510477 L269.066833,90.8495462 L274.597018,90.8495462 L263.642999,19.063497 Z M258.857262,25.2317798 L259.069961,25.2317798 L265.344594,66.9208631 L252.47628,66.9208631 L258.857262,25.2317798 Z M283.62788,54.0525491 L283.62788,24.5936816 L290.327911,24.5936816 C295.539047,24.5936816 299.686685,28.74132 299.686685,33.9524554 L299.686685,44.6937753 C299.686685,49.9049107 295.539047,54.0525491 290.327911,54.0525491 L283.62788,54.0525491 Z M290.327911,59.5827337 C298.516839,59.5827337 305.21687,52.8827024 305.21687,44.6937753 L305.21687,33.9524554 C305.21687,25.7635283 298.516839,19.063497 290.327911,19.063497 L278.097696,19.063497 L278.097696,90.8495462 L283.62788,90.8495462 L283.62788,59.5827337 L290.327911,59.5827337 Z M343.688875,59.5827337 L351.984152,59.5827337 L351.984152,78.0875819 C351.984152,82.6606191 348.261912,86.3828587 343.688875,86.3828587 C339.115838,86.3828587 335.393598,82.6606191 335.393598,78.0875819 L335.393598,31.8254613 C335.393598,27.2524241 339.115838,23.5301845 343.688875,23.5301845 C348.261912,23.5301845 351.984152,27.2524241 351.984152,31.8254613 L351.984152,40.9715357 L357.514336,40.3334375 L357.514336,31.8254613 C357.514336,24.1682827 351.346054,18 343.688875,18 C336.031696,18 329.863414,24.1682827 329.863414,31.8254613 L329.863414,78.0875819 C329.863414,85.7447605 336.031696,91.9130432 343.688875,91.9130432 C347.198415,91.9130432 350.388906,90.6368468 352.834949,88.5098528 L352.834949,90.9558959 L357.514336,91.9130432 L357.514336,54.0525491 L343.688875,54.0525491 L343.688875,59.5827337 Z M391.00563,67.0272129 C391.00563,62.0287768 388.453237,57.668439 384.730998,54.9033468 C388.453237,52.2446042 391.00563,47.7779167 391.00563,42.7794807 L391.00563,33.9524554 C391.00563,25.7635283 384.305599,19.063497 376.116672,19.063497 L363.886456,19.063497 L363.886456,90.8495462 L369.416641,90.8495462 L369.416641,57.668439 L376.116672,57.668439 C381.327807,57.668439 385.475446,61.8160774 385.475446,67.0272129 L385.475446,90.8495462 L391.00563,90.8495462 L391.00563,67.0272129 Z M369.416641,52.1382545 L369.416641,24.5936816 L376.116672,24.5936816 C381.327807,24.5936816 385.475446,28.74132 385.475446,33.9524554 L385.475446,42.7794807 C385.475446,47.9906161 381.327807,52.1382545 376.116672,52.1382545 L369.416641,52.1382545 Z M402.801585,90.8495462 L402.801585,19.063497 L397.2714,19.063497 L397.2714,90.8495462 L402.801585,90.8495462 Z M415.767386,85.3193617 L415.767386,19.063497 L410.237202,19.063497 L410.237202,90.8495462 L433.102388,90.8495462 L433.102388,85.3193617 L415.767386,85.3193617 Z M442.664998,85.3193617 L442.664998,19.063497 L437.134814,19.063497 L437.134814,90.8495462 L460,90.8495462 L460,85.3193617 L442.664998,85.3193617 Z" id="BULBAP-GRILL" fill="#4A4A4A"></path>
            <g id="Group-2">
                <g id="Oval-2">
                    <use fill="#FFFFFF" fill-rule="evenodd" xlink:href="#path-1"></use>
                    <circle stroke="#5E9426" stroke-width="3" cx="55" cy="55" r="56.5"></circle>
                </g>
                <g id="Group" transform="translate(8.000000, 33.000000)" fill="#5E9426">
                    <g id="Group-6" transform="translate(0.000000, 24.123011)">
                        <g id="Group-Copy-4" transform="translate(0.000000, 0.119238)">
                            <polygon id="Rectangle-4-Copy-3" transform="translate(46.727279, 7.087700) scale(-1, 1) translate(-46.727279, -7.087700) " points="2.29268278e-07 5.63595754 93.454557 6.80508752 93.4448287 7.97651536 2.29268278e-07 8.53944246"></polygon>
                            <polygon id="Rectangle-4-Copy-3" points="0 0 93.4545567 1.16912998 93.4448284 2.34055781 0 2.90348492"></polygon>
                            <rect id="Rectangle-3" x="24.0803152" y="25.7572353" width="45.2939263" height="11.4785286"></rect>
                            <path d="M46.7379165,35.8915346 C71.1168975,35.8915346 93.4758331,25.0243348 93.4758331,11.4090746 C40.6505019,11.4166983 43.6851105,11.4604342 0,11.4090746 C0,25.0243348 22.3589356,35.8915346 46.7379165,35.8915346 Z" id="Oval"></path>
                        </g>
                    </g>
                    <path d="M3.36247014,20.0286265 C5.61386319,20.0286265 7.45591205,18.1865777 7.45591205,15.9351846 L7.45591205,13.4791195 C7.45591205,12.1048925 6.75417915,10.9060988 5.73081867,10.1458882 C6.75417915,9.41491639 7.45591205,8.18688381 7.45591205,6.81265689 L7.45591205,4.38583062 C7.45591205,2.13443757 5.61386319,0.292388708 3.36247014,0.292388708 L0,0.292388708 L0,20.0286265 L3.36247014,20.0286265 Z M5.93549077,15.9351846 C5.93549077,17.3678893 4.79517481,18.5082052 3.36247014,18.5082052 L1.52042128,18.5082052 L1.52042128,10.9060988 L3.36247014,10.9060988 C4.79517481,10.9060988 5.93549077,12.0464148 5.93549077,13.4791195 L5.93549077,15.9351846 Z M1.52042128,9.38567752 L1.52042128,1.81280999 L3.36247014,1.81280999 C4.79517481,1.81280999 5.93549077,2.95312595 5.93549077,4.38583062 L5.93549077,6.81265689 C5.93549077,8.24536156 4.79517481,9.38567752 3.36247014,9.38567752 L1.52042128,9.38567752 Z M15.1140596,0.292388708 L15.1140596,16.519962 C15.1140596,17.7772335 14.0906992,18.8005939 12.8334277,18.8005939 C11.5761563,18.8005939 10.5527958,17.7772335 10.5527958,16.519962 L10.5527958,0.292388708 L9.03237453,0.292388708 L9.03237453,16.519962 C9.03237453,18.6251607 10.728229,20.3210151 12.8334277,20.3210151 C14.9386264,20.3210151 16.634481,18.6251607 16.634481,16.519962 L16.634481,0.292388708 L15.1140596,0.292388708 Z M20.1407089,18.5082052 L20.1407089,0.292388708 L18.6202876,0.292388708 L18.6202876,20.0286265 L24.9066448,20.0286265 L24.9066448,18.5082052 L20.1407089,18.5082052 Z M29.3777555,20.0286265 C31.6291485,20.0286265 33.4711974,18.1865777 33.4711974,15.9351846 L33.4711974,13.4791195 C33.4711974,12.1048925 32.7694645,10.9060988 31.746104,10.1458882 C32.7694645,9.41491639 33.4711974,8.18688381 33.4711974,6.81265689 L33.4711974,4.38583062 C33.4711974,2.13443757 31.6291485,0.292388708 29.3777555,0.292388708 L26.0152854,0.292388708 L26.0152854,20.0286265 L29.3777555,20.0286265 Z M31.9507761,15.9351846 C31.9507761,17.3678893 30.8104601,18.5082052 29.3777555,18.5082052 L27.5357066,18.5082052 L27.5357066,10.9060988 L29.3777555,10.9060988 C30.8104601,10.9060988 31.9507761,12.0464148 31.9507761,13.4791195 L31.9507761,15.9351846 Z M27.5357066,9.38567752 L27.5357066,1.81280999 L29.3777555,1.81280999 C30.8104601,1.81280999 31.9507761,2.95312595 31.9507761,4.38583062 L31.9507761,6.81265689 C31.9507761,8.24536156 30.8104601,9.38567752 29.3777555,9.38567752 L27.5357066,9.38567752 Z M39.4919683,0.292388708 L36.9189476,0.292388708 L33.9073439,20.0286265 L35.4277652,20.0286265 L36.1879758,14.9703019 L40.1937012,14.9703019 L40.9831507,20.0286265 L42.5035719,20.0286265 L39.4919683,0.292388708 Z M38.1762191,1.98824321 L38.2346968,1.98824321 L39.9597902,13.4498805 L36.4218868,13.4498805 L38.1762191,1.98824321 Z M44.9864394,9.91197719 L44.9864394,1.81280999 L46.8284883,1.81280999 C48.261193,1.81280999 49.4015089,2.95312595 49.4015089,4.38583062 L49.4015089,7.33895656 C49.4015089,8.77166123 48.261193,9.91197719 46.8284883,9.91197719 L44.9864394,9.91197719 Z M46.8284883,11.4323985 C49.0798813,11.4323985 50.9219301,9.59034962 50.9219301,7.33895656 L50.9219301,4.38583062 C50.9219301,2.13443757 49.0798813,0.292388708 46.8284883,0.292388708 L43.4660181,0.292388708 L43.4660181,20.0286265 L44.9864394,20.0286265 L44.9864394,11.4323985 L46.8284883,11.4323985 Z M61.4990918,11.4323985 L63.7797237,11.4323985 L63.7797237,16.519962 C63.7797237,17.7772335 62.7563632,18.8005939 61.4990918,18.8005939 C60.2418204,18.8005939 59.2184598,17.7772335 59.2184598,16.519962 L59.2184598,3.8010532 C59.2184598,2.54378176 60.2418204,1.52042128 61.4990918,1.52042128 C62.7563632,1.52042128 63.7797237,2.54378176 63.7797237,3.8010532 L63.7797237,6.31559609 L65.3001449,6.14016287 L65.3001449,3.8010532 C65.3001449,1.6958545 63.6042905,0 61.4990918,0 C59.393893,0 57.6980385,1.6958545 57.6980385,3.8010532 L57.6980385,16.519962 C57.6980385,18.6251607 59.393893,20.3210151 61.4990918,20.3210151 C62.4639745,20.3210151 63.3411407,19.9701488 64.0136347,19.3853714 L64.0136347,20.0578654 L65.3001449,20.3210151 L65.3001449,9.91197719 L61.4990918,9.91197719 L61.4990918,11.4323985 Z M74.5079527,13.4791195 C74.5079527,12.1048925 73.8062198,10.9060988 72.7828594,10.1458882 C73.8062198,9.41491639 74.5079527,8.18688381 74.5079527,6.81265689 L74.5079527,4.38583062 C74.5079527,2.13443757 72.6659039,0.292388708 70.4145108,0.292388708 L67.0520407,0.292388708 L67.0520407,20.0286265 L68.5724619,20.0286265 L68.5724619,10.9060988 L70.4145108,10.9060988 C71.8472155,10.9060988 72.9875314,12.0464148 72.9875314,13.4791195 L72.9875314,20.0286265 L74.5079527,20.0286265 L74.5079527,13.4791195 Z M68.5724619,9.38567752 L68.5724619,1.81280999 L70.4145108,1.81280999 C71.8472155,1.81280999 72.9875314,2.95312595 72.9875314,4.38583062 L72.9875314,6.81265689 C72.9875314,8.24536156 71.8472155,9.38567752 70.4145108,9.38567752 L68.5724619,9.38567752 Z M77.7510308,20.0286265 L77.7510308,0.292388708 L76.2306096,0.292388708 L76.2306096,20.0286265 L77.7510308,20.0286265 Z M81.3157365,18.5082052 L81.3157365,0.292388708 L79.7953152,0.292388708 L79.7953152,20.0286265 L86.0816725,20.0286265 L86.0816725,18.5082052 L81.3157365,18.5082052 Z M88.7107343,18.5082052 L88.7107343,0.292388708 L87.1903129,0.292388708 L87.1903129,20.0286265 L93.4766702,20.0286265 L93.4766702,18.5082052 L88.7107343,18.5082052 Z" id="BULBAP-GRILL"></path>
                </g>
            </g>
        </g>
    </g>
</svg>